# Blender 4.5.3 LTS
# www.blender.org
mtllib Achsen Gizmo Scale X.mtl
o Sphere
v 0.000000 -2.416132 1.614408
v 0.000000 -1.614408 2.416132
v 0.000000 -0.566905 2.850022
v 0.000000 0.000000 2.905857
v 0.000000 0.566905 2.850022
v 0.000000 1.614408 2.416132
v -0.110598 -2.850022 0.556012
v -0.216945 -2.684662 1.090656
v -0.314955 -2.416132 1.583387
v -0.400862 -2.054751 2.015270
v -0.471364 -1.614408 2.369707
v -0.523752 -1.112023 2.633077
v -0.556012 -0.566905 2.795259
v -0.566905 0.000000 2.850022
v -0.556012 0.566905 2.795259
v -0.523752 1.112023 2.633077
v -0.471364 1.614408 2.369707
v -0.400862 2.054751 2.015270
v -0.314955 2.416132 1.583387
v -0.216945 2.684662 1.090656
v -0.110598 2.850022 0.556012
v -0.216945 -2.850022 0.523752
v -0.425553 -2.684662 1.027376
v -0.617807 -2.416132 1.491518
v -0.786319 -2.054751 1.898343
v -0.924614 -1.614408 2.232215
v -1.027376 -1.112023 2.480304
v -1.090656 -0.566905 2.633077
v -1.112023 0.000000 2.684662
v -1.090656 0.566905 2.633077
v -1.027376 1.112023 2.480304
v -0.924614 1.614408 2.232215
v -0.786319 2.054751 1.898343
v -0.617807 2.416132 1.491518
v -0.425553 2.684662 1.027376
v -0.216945 2.850022 0.523752
v -0.314955 -2.850022 0.471364
v -0.617807 -2.684662 0.924614
v -0.896917 -2.416132 1.342331
v -1.141559 -2.054751 1.708463
v -1.342331 -1.614408 2.008940
v -1.491518 -1.112023 2.232215
v -1.583387 -0.566905 2.369707
v -1.614408 0.000000 2.416131
v -1.583387 0.566905 2.369707
v -1.491518 1.112023 2.232215
v -1.342331 1.614408 2.008940
v -1.141559 2.054751 1.708463
v -0.896917 2.416132 1.342331
v -0.617807 2.684662 0.924614
v -0.314955 2.850022 0.471364
v -0.400862 -2.850022 0.400862
v -0.786319 -2.684662 0.786319
v -1.141559 -2.416132 1.141558
v -1.452929 -2.054751 1.452929
v -1.708463 -1.614408 1.708463
v -1.898342 -1.112023 1.898343
v -2.015270 -0.566905 2.015270
v -2.054751 0.000000 2.054751
v -2.015270 0.566905 2.015270
v -1.898342 1.112023 1.898343
v -1.708463 1.614408 1.708463
v -1.452929 2.054751 1.452929
v -1.141559 2.416132 1.141558
v -0.786319 2.684662 0.786319
v -0.400862 2.850022 0.400862
v -0.471364 -2.850022 0.314955
v -0.924614 -2.684662 0.617807
v -1.342331 -2.416132 0.896917
v -1.708463 -2.054751 1.141559
v -2.008940 -1.614408 1.342331
v -2.232215 -1.112023 1.491518
v -2.369707 -0.566905 1.583387
v -2.416132 0.000000 1.614407
v -2.369707 0.566905 1.583387
v -2.232215 1.112023 1.491518
v -2.008940 1.614408 1.342331
v -1.708463 2.054751 1.141559
v -1.342331 2.416132 0.896917
v -0.924614 2.684662 0.617807
v -0.471364 2.850022 0.314955
v 0.000000 -2.905857 0.000000
v -0.523751 -2.850022 0.216945
v -1.027376 -2.684662 0.425553
v -1.491518 -2.416132 0.617807
v -1.898343 -2.054751 0.786319
v -2.232215 -1.614408 0.924613
v -2.480304 -1.112023 1.027376
v -2.633077 -0.566905 1.090656
v -2.684662 0.000000 1.112023
v -2.633077 0.566905 1.090656
v -2.480304 1.112023 1.027376
v -2.232215 1.614408 0.924613
v -1.898343 2.054751 0.786319
v -1.491518 2.416132 0.617807
v -1.027376 2.684662 0.425553
v -0.523751 2.850022 0.216945
v -0.556012 -2.850022 0.110598
v -1.090656 -2.684662 0.216945
v -1.583387 -2.416132 0.314955
v -2.015270 -2.054751 0.400862
v -2.369706 -1.614408 0.471364
v -2.633077 -1.112023 0.523752
v -2.795259 -0.566905 0.556011
v -2.850021 0.000000 0.566904
v -2.795259 0.566905 0.556011
v -2.633077 1.112023 0.523752
v -2.369706 1.614408 0.471364
v -2.015270 2.054751 0.400862
v -1.583387 2.416132 0.314955
v -1.090656 2.684662 0.216945
v -0.556012 2.850022 0.110598
v -0.566904 -2.850022 -0.000000
v -1.112023 -2.684662 -0.000000
v -1.614407 -2.416132 -0.000000
v -2.054751 -2.054751 0.000000
v -2.416131 -1.614408 -0.000000
v -2.684662 -1.112023 0.000000
v -2.850022 -0.566905 -0.000000
v -2.905856 0.000000 -0.000000
v -2.850022 0.566905 -0.000000
v -2.684662 1.112023 0.000000
v -2.416131 1.614408 -0.000000
v -2.054751 2.054751 0.000000
v -1.614407 2.416132 -0.000000
v -1.112023 2.684662 -0.000000
v -0.566904 2.850022 -0.000000
v -0.556012 -2.850022 -0.110598
v -1.090656 -2.684662 -0.216945
v -1.583387 -2.416132 -0.314955
v -2.015270 -2.054751 -0.400862
v -2.369706 -1.614408 -0.471364
v -2.633077 -1.112023 -0.523751
v -2.795259 -0.566905 -0.556012
v -2.850021 0.000000 -0.566905
v -2.795259 0.566905 -0.556012
v -2.633077 1.112023 -0.523751
v -2.369706 1.614408 -0.471364
v -2.015270 2.054751 -0.400862
v -1.583387 2.416132 -0.314955
v -1.090656 2.684662 -0.216945
v -0.556012 2.850022 -0.110598
v -0.523751 -2.850022 -0.216945
v -1.027376 -2.684662 -0.425553
v -1.491518 -2.416132 -0.617807
v -1.898342 -2.054751 -0.786319
v -2.232214 -1.614408 -0.924614
v -2.480304 -1.112023 -1.027375
v -2.633076 -0.566905 -1.090656
v -2.684661 0.000000 -1.112023
v -2.633076 0.566905 -1.090656
v -2.480304 1.112023 -1.027375
v -2.232214 1.614408 -0.924614
v -1.898342 2.054751 -0.786319
v -1.491518 2.416132 -0.617807
v -1.027376 2.684662 -0.425553
v -0.523751 2.850022 -0.216945
v -0.471364 -2.850022 -0.314955
v -0.924614 -2.684662 -0.617807
v -1.342330 -2.416132 -0.896917
v -1.708463 -2.054751 -1.141559
v -2.008940 -1.614408 -1.342331
v -2.232215 -1.112023 -1.491518
v -2.369706 -0.566905 -1.583387
v -2.416131 0.000000 -1.614408
v -2.369706 0.566905 -1.583387
v -2.232215 1.112023 -1.491518
v -2.008940 1.614408 -1.342331
v -1.708463 2.054751 -1.141559
v -1.342330 2.416132 -0.896917
v -0.924614 2.684662 -0.617807
v -0.471364 2.850022 -0.314955
v -0.400862 -2.850022 -0.400862
v -0.786319 -2.684662 -0.786319
v -1.141558 -2.416132 -1.141559
v -1.452929 -2.054751 -1.452929
v -1.708463 -1.614408 -1.708463
v -1.898342 -1.112023 -1.898342
v -2.015269 -0.566905 -2.015270
v -2.054750 0.000000 -2.054751
v -2.015269 0.566905 -2.015270
v -1.898342 1.112023 -1.898342
v -1.708463 1.614408 -1.708463
v -1.452929 2.054751 -1.452929
v -1.141558 2.416132 -1.141559
v -0.786319 2.684662 -0.786319
v -0.400862 2.850022 -0.400862
v -0.314955 -2.850022 -0.471364
v -0.617807 -2.684662 -0.924614
v -0.896916 -2.416132 -1.342331
v -1.141559 -2.054751 -1.708463
v -1.342330 -1.614408 -2.008940
v -1.491518 -1.112023 -2.232214
v -1.583387 -0.566905 -2.369706
v -1.614406 0.000000 -2.416131
v -1.583387 0.566905 -2.369706
v -1.491518 1.112023 -2.232214
v -1.342330 1.614408 -2.008940
v -1.141559 2.054751 -1.708463
v -0.896916 2.416132 -1.342331
v -0.617807 2.684662 -0.924614
v -0.314955 2.850022 -0.471364
v -0.216945 -2.850022 -0.523751
v -0.425553 -2.684662 -1.027375
v -0.617807 -2.416132 -1.491518
v -0.786319 -2.054751 -1.898342
v -0.924613 -1.614408 -2.232214
v -1.027376 -1.112023 -2.480304
v -1.090656 -0.566905 -2.633076
v -1.112022 0.000000 -2.684661
v -1.090656 0.566905 -2.633076
v -1.027376 1.112023 -2.480304
v -0.924613 1.614408 -2.232214
v -0.786319 2.054751 -1.898342
v -0.617807 2.416132 -1.491518
v -0.425553 2.684662 -1.027375
v -0.216945 2.850022 -0.523751
v -0.110598 -2.850022 -0.556011
v -0.216945 -2.684662 -1.090656
v -0.314955 -2.416132 -1.583387
v -0.400862 -2.054751 -2.015270
v -0.471364 -1.614408 -2.369706
v -0.523752 -1.112023 -2.633076
v -0.556011 -0.566905 -2.795259
v -0.566903 0.000000 -2.850021
v -0.556011 0.566905 -2.795259
v -0.523752 1.112023 -2.633076
v -0.471364 1.614408 -2.369706
v -0.400862 2.054751 -2.015270
v -0.314955 2.416132 -1.583387
v -0.216945 2.684662 -1.090656
v -0.110598 2.850022 -0.556011
v 0.000000 -2.850022 -0.566904
v 0.000000 -2.684662 -1.112023
v 0.000000 -2.416132 -1.614407
v 0.000000 -2.054751 -2.054751
v 0.000000 -1.614408 -2.416131
v -0.000000 -1.112023 -2.684661
v 0.000000 -0.566905 -2.850021
v 0.000001 0.000000 -2.905855
v 0.000000 0.566905 -2.850021
v -0.000000 1.112023 -2.684661
v 0.000000 1.614408 -2.416131
v 0.000000 2.054751 -2.054751
v 0.000000 2.416132 -1.614407
v 0.000000 2.684662 -1.112023
v 0.000000 2.850022 -0.566904
v 0.110598 -2.850022 -0.556011
v 0.216945 -2.684662 -1.090656
v 0.314955 -2.416132 -1.583387
v 0.400862 -2.054751 -2.015270
v 0.471364 -1.614408 -2.369706
v 0.523751 -1.112023 -2.633076
v 0.556012 -0.566905 -2.795259
v 0.566905 0.000000 -2.850020
v 0.556012 0.566905 -2.795259
v 0.523751 1.112023 -2.633076
v 0.471364 1.614408 -2.369706
v 0.400862 2.054751 -2.015270
v 0.314955 2.416132 -1.583387
v 0.216945 2.684662 -1.090656
v 0.110598 2.850022 -0.556011
v 0.216945 -2.850022 -0.523751
v 0.425553 -2.684662 -1.027375
v 0.617807 -2.416132 -1.491517
v 0.786319 -2.054751 -1.898342
v 0.924614 -1.614408 -2.232214
v 1.027375 -1.112023 -2.480304
v 1.090656 -0.566905 -2.633076
v 1.112024 0.000000 -2.684660
v 1.090656 0.566905 -2.633076
v 1.027375 1.112023 -2.480304
v 0.924614 1.614408 -2.232214
v 0.786319 2.054751 -1.898342
v 0.617807 2.416132 -1.491517
v 0.425553 2.684662 -1.027375
v 0.216945 2.850022 -0.523751
v 0.314955 -2.850022 -0.471364
v 0.617807 -2.684662 -0.924613
v 0.896917 -2.416132 -1.342330
v 1.141559 -2.054751 -1.708463
v 1.342331 -1.614408 -2.008939
v 1.491518 -1.112023 -2.232214
v 1.583387 -0.566905 -2.369706
v 1.614407 0.000000 -2.416130
v 1.583387 0.566905 -2.369706
v 1.491518 1.112023 -2.232214
v 1.342331 1.614408 -2.008939
v 1.141559 2.054751 -1.708463
v 0.896917 2.416132 -1.342330
v 0.617807 2.684662 -0.924613
v 0.314955 2.850022 -0.471364
v 0.400862 -2.850022 -0.400862
v 0.786319 -2.684662 -0.786319
v 1.141558 -2.416132 -1.141558
v 1.452928 -2.054751 -1.452928
v 1.708463 -1.614408 -1.708462
v 1.898342 -1.112023 -1.898342
v 2.015270 -0.566905 -2.015269
v 2.054750 0.000000 -2.054749
v 2.015270 0.566905 -2.015269
v 1.898342 1.112023 -1.898342
v 1.708463 1.614408 -1.708462
v 1.452928 2.054751 -1.452928
v 1.141558 2.416132 -1.141558
v 0.786319 2.684662 -0.786319
v 0.400862 2.850022 -0.400862
v 0.000000 2.905857 0.000000
v 0.471364 -2.850022 -0.314955
v 0.924613 -2.684662 -0.617807
v 1.342330 -2.416132 -0.896916
v 1.708463 -2.054751 -1.141558
v 2.008940 -1.614408 -1.342330
v 2.232214 -1.112023 -1.491518
v 2.369706 -0.566905 -1.583386
v 2.416131 0.000000 -1.614405
v 2.369706 0.566905 -1.583386
v 2.232214 1.112023 -1.491518
v 2.008940 1.614408 -1.342330
v 1.708463 2.054751 -1.141558
v 1.342330 2.416132 -0.896916
v 0.924613 2.684662 -0.617807
v 0.471364 2.850022 -0.314955
v 0.523751 -2.850022 -0.216945
v 1.027375 -2.684662 -0.425553
v 1.491517 -2.416132 -0.617806
v 1.898342 -2.054751 -0.786319
v 2.232214 -1.614408 -0.924613
v 2.480303 -1.112023 -1.027375
v 2.633076 -0.566905 -1.090655
v 2.684660 0.000000 -1.112021
v 2.633076 0.566905 -1.090655
v 2.480303 1.112023 -1.027375
v 2.232214 1.614408 -0.924613
v 1.898342 2.054751 -0.786319
v 1.491517 2.416132 -0.617806
v 1.027375 2.684662 -0.425553
v 0.523751 2.850022 -0.216945
v 0.556011 -2.850022 -0.110597
v 1.090656 -2.684662 -0.216945
v 1.583386 -2.416132 -0.314955
v 2.015270 -2.054751 -0.400862
v 2.369706 -1.614408 -0.471363
v 2.633076 -1.112023 -0.523751
v 2.795259 -0.566905 -0.556011
v 2.850019 0.000000 -0.566903
v 2.795259 0.566905 -0.556011
v 2.633076 1.112023 -0.523751
v 2.369706 1.614408 -0.471363
v 2.015270 2.054751 -0.400862
v 1.583386 2.416132 -0.314955
v 1.090656 2.684662 -0.216945
v 0.556011 2.850022 -0.110597
v 0.566904 -2.850022 0.000000
v 1.112023 -2.684662 0.000000
v 1.614406 -2.416132 0.000000
v 2.054751 -2.054751 0.000000
v 2.416131 -1.614408 0.000000
v 2.684661 -1.112023 0.000000
v 2.850021 -0.566905 0.000001
v 2.905854 0.000000 0.000001
v 2.850021 0.566905 0.000001
v 2.684661 1.112023 0.000000
v 2.416131 1.614408 0.000000
v 2.054751 2.054751 0.000000
v 1.614406 2.416132 0.000000
v 1.112023 2.684662 0.000000
v 0.566904 2.850022 0.000000
v 0.556011 -2.850022 0.110598
v 1.090656 -2.684662 0.216945
v 1.583386 -2.416132 0.314956
v 2.015269 -2.054751 0.400862
v 2.369705 -1.614408 0.471364
v 2.633076 -1.112023 0.523751
v 2.795258 -0.566905 0.556012
v 2.850019 0.000000 0.566905
v 2.795258 0.566905 0.556012
v 2.633076 1.112023 0.523751
v 2.369705 1.614408 0.471364
v 2.015269 2.054751 0.400862
v 1.583386 2.416132 0.314956
v 1.090656 2.684662 0.216945
v 0.556011 2.850022 0.110598
v 0.523751 -2.850022 0.216945
v 1.027375 -2.684662 0.425553
v 1.491517 -2.416132 0.617807
v 1.898342 -2.054751 0.786319
v 2.232213 -1.614408 0.924614
v 2.480303 -1.112023 1.027375
v 2.633075 -0.566905 1.090656
v 2.684659 0.000000 1.112024
v 2.633075 0.566905 1.090656
v 2.480303 1.112023 1.027375
v 2.232213 1.614408 0.924614
v 1.898342 2.054751 0.786319
v 1.491517 2.416132 0.617807
v 1.027375 2.684662 0.425553
v 0.523751 2.850022 0.216945
v 0.471363 -2.850022 0.314955
v 0.924613 -2.684662 0.617807
v 1.342329 -2.416132 0.896917
v 1.708463 -2.054751 1.141558
v 2.008939 -1.614408 1.342331
v 2.232214 -1.112023 1.491518
v 2.369705 -0.566905 1.583387
v 2.416129 0.000000 1.614407
v 2.369705 0.566905 1.583387
v 2.232214 1.112023 1.491518
v 2.008939 1.614408 1.342331
v 1.708463 2.054751 1.141558
v 1.342329 2.416132 0.896917
v 0.924613 2.684662 0.617807
v 0.471363 2.850022 0.314955
v 0.400862 -2.850022 0.400862
v 0.786319 -2.684662 0.786319
v 1.141557 -2.416132 1.141558
v 1.452928 -2.054751 1.452928
v 1.708462 -1.614408 1.708463
v 1.898342 -1.112023 1.898342
v 2.015268 -0.566905 2.015269
v 2.054748 0.000000 2.054750
v 2.015268 0.566905 2.015269
v 1.898342 1.112023 1.898342
v 1.708462 1.614408 1.708463
v 1.452928 2.054751 1.452928
v 1.141557 2.416132 1.141558
v 0.786319 2.684662 0.786319
v 0.400862 2.850022 0.400862
v 0.314955 -2.850022 0.471364
v 0.617807 -2.684662 0.924613
v 0.896915 -2.416132 1.342330
v 1.141558 -2.054751 1.708463
v 1.342330 -1.614408 2.008939
v 1.491518 -1.112023 2.232214
v 1.583386 -0.566905 2.369706
v 1.614405 0.000000 2.416130
v 1.583386 0.566905 2.369706
v 1.491518 1.112023 2.232214
v 1.342330 1.614408 2.008939
v 1.141558 2.054751 1.708463
v 0.896915 2.416132 1.342330
v 0.617807 2.684662 0.924613
v 0.314955 2.850022 0.471364
v 0.216945 -2.850022 0.523751
v 0.425553 -2.684662 1.027375
v 0.617806 -2.416132 1.491517
v 0.786319 -2.054751 1.898342
v 0.924612 -1.614408 2.232213
v 1.027375 -1.112023 2.480303
v 1.090655 -0.566905 2.633076
v 1.112021 0.000000 2.684659
v 1.090655 0.566905 2.633076
v 1.027375 1.112023 2.480303
v 0.924612 1.614408 2.232213
v 0.786319 2.054751 1.898342
v 0.617806 2.416132 1.491517
v 0.425553 2.684662 1.027375
v 0.216945 2.850022 0.523751
v 0.110597 -2.850022 0.556011
v 0.216945 -2.684662 1.090656
v 0.314954 -2.416132 1.583386
v 0.400862 -2.054751 2.015270
v 0.471363 -1.614408 2.369705
v 0.523751 -1.112023 2.633076
v 0.556011 -0.566905 2.795258
v 0.566903 0.000000 2.850019
v 0.556011 0.566905 2.795258
v 0.523751 1.112023 2.633076
v 0.471363 1.614408 2.369705
v 0.400862 2.054751 2.015270
v 0.314954 2.416132 1.583386
v 0.216945 2.684662 1.090656
v 0.110597 2.850022 0.556011
v -0.000000 -2.850022 0.566904
v -0.000000 -2.684662 1.112023
v -0.000000 -2.054751 2.054751
v -0.000000 -1.112023 2.684661
v -0.000000 1.112023 2.684661
v -0.000000 2.054751 2.054751
v -0.000001 2.416132 1.614406
v -0.000000 2.684662 1.112023
v -0.000000 2.850022 0.566904
v 1.322974 -0.702310 -0.000000
v 25.358210 -0.702311 0.000000
v 1.322974 -0.688815 0.137014
v 25.358210 -0.688816 0.137014
v 1.322974 -0.648849 0.268762
v 25.358210 -0.648851 0.268763
v 1.322974 -0.583949 0.390182
v 25.358210 -0.583950 0.390183
v 1.322974 -0.496608 0.496608
v 25.358210 -0.496609 0.496609
v 1.322974 -0.390182 0.583949
v 25.358210 -0.390183 0.583950
v 1.322974 -0.268762 0.648850
v 25.358210 -0.268763 0.648851
v 1.322974 -0.137013 0.688815
v 25.358210 -0.137014 0.688816
v 1.322974 0.000001 0.702310
v 25.358210 -0.000000 0.702311
v 1.322974 0.137015 0.688815
v 25.358210 0.137014 0.688816
v 1.322974 0.268764 0.648850
v 25.358210 0.268762 0.648851
v 1.322974 0.390184 0.583949
v 25.358210 0.390183 0.583950
v 1.322974 0.496610 0.496608
v 25.358210 0.496608 0.496609
v 1.322974 0.583951 0.390182
v 25.358210 0.583950 0.390183
v 1.322974 0.648851 0.268762
v 25.358210 0.648850 0.268763
v 1.322974 0.688817 0.137014
v 25.358210 0.688816 0.137014
v 1.322974 0.702312 -0.000000
v 25.358210 0.702311 0.000000
v 1.322974 0.688817 -0.137014
v 25.358210 0.688816 -0.137014
v 1.322974 0.648851 -0.268763
v 25.358210 0.648850 -0.268762
v 1.322974 0.583951 -0.390183
v 25.358210 0.583950 -0.390183
v 1.322974 0.496610 -0.496609
v 25.358210 0.496608 -0.496608
v 1.322974 0.390184 -0.583950
v 25.358210 0.390183 -0.583950
v 1.322974 0.268764 -0.648851
v 25.358210 0.268762 -0.648850
v 1.322974 0.137015 -0.688816
v 25.358210 0.137014 -0.688816
v 1.322974 0.000001 -0.702311
v 25.358210 -0.000000 -0.702311
v 1.322974 -0.137013 -0.688816
v 25.358210 -0.137014 -0.688816
v 1.322974 -0.268762 -0.648851
v 25.358210 -0.268763 -0.648850
v 1.322974 -0.390182 -0.583950
v 25.358210 -0.390183 -0.583950
v 1.322974 -0.496608 -0.496609
v 25.358210 -0.496609 -0.496608
v 1.322974 -0.583949 -0.390183
v 25.358210 -0.583950 -0.390183
v 1.322974 -0.648849 -0.268763
v 25.358210 -0.648851 -0.268762
v 1.322974 -0.688815 -0.137014
v 25.358210 -0.688816 -0.137014
vn -0.0865 0.4696 0.8786
vn -0.0624 -0.7715 0.6332
vn -0.0759 0.6326 0.7708
vn -0.0759 -0.6326 0.7708
vn -0.0624 0.7715 0.6332
vn -0.0865 -0.4696 0.8786
vn -0.0464 0.8810 0.4709
vn -0.0938 -0.2890 0.9527
vn -0.0286 0.9565 0.2902
vn -0.0975 -0.0976 0.9904
vn -0.0097 -0.9951 0.0980
vn -0.0097 0.9951 0.0980
vn -0.0975 0.0976 0.9904
vn -0.0286 -0.9565 0.2902
vn -0.0938 0.2890 0.9527
vn -0.0464 -0.8810 0.4709
vn -0.2779 0.2890 0.9161
vn -0.1374 -0.8810 0.4528
vn -0.2563 0.4696 0.8448
vn -0.1847 -0.7715 0.6088
vn -0.2248 0.6326 0.7412
vn -0.2248 -0.6326 0.7412
vn -0.1847 0.7715 0.6088
vn -0.2563 -0.4696 0.8448
vn -0.1374 0.8810 0.4528
vn -0.2779 -0.2890 0.9161
vn -0.0846 0.9565 0.2790
vn -0.2889 -0.0975 0.9524
vn -0.0286 -0.9951 0.0942
vn -0.0286 0.9951 0.0942
vn -0.2889 0.0975 0.9524
vn -0.0846 -0.9565 0.2790
vn -0.2230 0.8810 0.4173
vn -0.4513 -0.2890 0.8443
vn -0.1374 0.9565 0.2571
vn -0.4691 -0.0975 0.8777
vn -0.0464 -0.9951 0.0869
vn -0.0464 0.9951 0.0869
vn -0.4691 0.0975 0.8777
vn -0.1374 -0.9565 0.2571
vn -0.4513 0.2890 0.8443
vn -0.2230 -0.8810 0.4173
vn -0.4162 0.4696 0.7786
vn -0.2999 -0.7715 0.5611
vn -0.3651 0.6326 0.6831
vn -0.3651 -0.6326 0.6831
vn -0.2999 0.7715 0.5611
vn -0.4162 -0.4696 0.7786
vn -0.3002 -0.8810 0.3658
vn -0.5601 0.4696 0.6825
vn -0.4036 -0.7715 0.4918
vn -0.4913 0.6326 0.5987
vn -0.4913 -0.6326 0.5987
vn -0.4036 0.7715 0.4918
vn -0.5601 -0.4696 0.6825
vn -0.3002 0.8810 0.3658
vn -0.6073 -0.2890 0.7400
vn -0.1850 0.9565 0.2254
vn -0.6314 -0.0975 0.7693
vn -0.0625 -0.9951 0.0761
vn -0.0625 0.9951 0.0761
vn -0.6314 0.0975 0.7693
vn -0.1850 -0.9565 0.2254
vn -0.6073 0.2890 0.7400
vn -0.7400 -0.2890 0.6073
vn -0.2254 0.9565 0.1850
vn -0.7693 -0.0975 0.6314
vn -0.0761 -0.9951 0.0625
vn -0.0761 0.9951 0.0625
vn -0.7693 0.0975 0.6314
vn -0.2254 -0.9565 0.1850
vn -0.7400 0.2890 0.6073
vn -0.3658 -0.8810 0.3002
vn -0.6825 0.4696 0.5601
vn -0.4918 -0.7715 0.4036
vn -0.5987 0.6326 0.4913
vn -0.5987 -0.6326 0.4913
vn -0.4918 0.7715 0.4036
vn -0.6825 -0.4696 0.5601
vn -0.3658 0.8810 0.3002
vn -0.7786 0.4696 0.4162
vn -0.5611 -0.7715 0.2999
vn -0.6831 0.6326 0.3651
vn -0.6831 -0.6326 0.3651
vn -0.5611 0.7715 0.2999
vn -0.7786 -0.4696 0.4162
vn -0.4173 0.8810 0.2230
vn -0.8443 -0.2890 0.4513
vn -0.2571 0.9565 0.1374
vn -0.8777 -0.0975 0.4691
vn -0.0869 -0.9951 0.0464
vn -0.0869 0.9951 0.0464
vn -0.8777 0.0975 0.4691
vn -0.2571 -0.9565 0.1374
vn -0.8443 0.2890 0.4513
vn -0.4173 -0.8810 0.2230
vn -0.2790 0.9565 0.0846
vn -0.9524 -0.0975 0.2889
vn -0.0942 -0.9951 0.0286
vn -0.0942 0.9951 0.0286
vn -0.9524 0.0975 0.2889
vn -0.2790 -0.9565 0.0846
vn -0.9161 0.2890 0.2779
vn -0.4528 -0.8810 0.1374
vn -0.8448 0.4696 0.2563
vn -0.6088 -0.7715 0.1847
vn -0.7412 0.6326 0.2248
vn -0.7412 -0.6326 0.2248
vn -0.6088 0.7715 0.1847
vn -0.8448 -0.4696 0.2563
vn -0.4528 0.8810 0.1374
vn -0.9161 -0.2890 0.2779
vn -0.6332 -0.7715 0.0624
vn -0.7708 0.6326 0.0759
vn -0.7708 -0.6326 0.0759
vn -0.6332 0.7715 0.0624
vn -0.8786 -0.4696 0.0865
vn -0.4709 0.8810 0.0464
vn -0.9527 -0.2890 0.0938
vn -0.2902 0.9565 0.0286
vn -0.9904 -0.0975 0.0975
vn -0.0980 -0.9951 0.0097
vn -0.0980 0.9951 0.0097
vn -0.9904 0.0975 0.0975
vn -0.2902 -0.9565 0.0286
vn -0.9527 0.2890 0.0938
vn -0.4709 -0.8810 0.0464
vn -0.8786 0.4696 0.0865
vn -0.9904 -0.0975 -0.0976
vn -0.0980 -0.9951 -0.0097
vn -0.0980 0.9951 -0.0097
vn -0.9904 0.0975 -0.0976
vn -0.2902 -0.9565 -0.0286
vn -0.9527 0.2890 -0.0938
vn -0.4709 -0.8810 -0.0464
vn -0.8786 0.4696 -0.0865
vn -0.6332 -0.7715 -0.0624
vn -0.7708 0.6326 -0.0759
vn -0.7708 -0.6326 -0.0759
vn -0.6332 0.7715 -0.0624
vn -0.8786 -0.4696 -0.0865
vn -0.4709 0.8810 -0.0464
vn -0.9527 -0.2890 -0.0938
vn -0.2902 0.9565 -0.0286
vn -0.7412 0.6326 -0.2248
vn -0.7412 -0.6326 -0.2248
vn -0.6088 0.7715 -0.1847
vn -0.8448 -0.4696 -0.2563
vn -0.4528 0.8810 -0.1374
vn -0.9161 -0.2890 -0.2779
vn -0.2790 0.9565 -0.0846
vn -0.9524 -0.0975 -0.2889
vn -0.0942 -0.9951 -0.0286
vn -0.0942 0.9951 -0.0286
vn -0.9524 0.0975 -0.2889
vn -0.2790 -0.9565 -0.0846
vn -0.9161 0.2890 -0.2779
vn -0.4528 -0.8810 -0.1374
vn -0.8448 0.4696 -0.2563
vn -0.6088 -0.7715 -0.1847
vn -0.0869 0.9951 -0.0464
vn -0.8777 0.0975 -0.4691
vn -0.2571 -0.9565 -0.1374
vn -0.8443 0.2890 -0.4513
vn -0.4173 -0.8810 -0.2231
vn -0.7786 0.4696 -0.4162
vn -0.5611 -0.7715 -0.2999
vn -0.6831 0.6326 -0.3651
vn -0.6831 -0.6326 -0.3651
vn -0.5611 0.7715 -0.2999
vn -0.7786 -0.4696 -0.4162
vn -0.4173 0.8810 -0.2231
vn -0.8443 -0.2890 -0.4513
vn -0.2571 0.9565 -0.1374
vn -0.8777 -0.0975 -0.4691
vn -0.0869 -0.9951 -0.0464
vn -0.4918 0.7715 -0.4036
vn -0.6825 -0.4696 -0.5601
vn -0.3658 0.8810 -0.3002
vn -0.7400 -0.2890 -0.6073
vn -0.2254 0.9565 -0.1850
vn -0.7693 -0.0975 -0.6314
vn -0.0761 -0.9951 -0.0625
vn -0.0761 0.9951 -0.0625
vn -0.7693 0.0975 -0.6314
vn -0.2254 -0.9565 -0.1850
vn -0.7400 0.2890 -0.6073
vn -0.3658 -0.8810 -0.3002
vn -0.6825 0.4696 -0.5601
vn -0.4918 -0.7715 -0.4036
vn -0.5987 0.6326 -0.4913
vn -0.5987 -0.6326 -0.4913
vn -0.1850 -0.9565 -0.2254
vn -0.6073 0.2890 -0.7400
vn -0.3002 -0.8810 -0.3658
vn -0.5601 0.4696 -0.6825
vn -0.4036 -0.7715 -0.4918
vn -0.4913 0.6326 -0.5987
vn -0.4913 -0.6326 -0.5987
vn -0.4036 0.7715 -0.4918
vn -0.5601 -0.4696 -0.6825
vn -0.3002 0.8810 -0.3658
vn -0.6073 -0.2890 -0.7400
vn -0.1850 0.9565 -0.2254
vn -0.6314 -0.0975 -0.7693
vn -0.0625 -0.9951 -0.0761
vn -0.0625 0.9951 -0.0761
vn -0.6314 0.0975 -0.7693
vn -0.4162 -0.4696 -0.7786
vn -0.2230 0.8810 -0.4173
vn -0.4513 -0.2890 -0.8443
vn -0.1374 0.9565 -0.2571
vn -0.4691 -0.0975 -0.8777
vn -0.0464 -0.9951 -0.0869
vn -0.0464 0.9951 -0.0869
vn -0.4691 0.0975 -0.8777
vn -0.1374 -0.9565 -0.2571
vn -0.4513 0.2890 -0.8443
vn -0.2230 -0.8810 -0.4173
vn -0.4162 0.4696 -0.7786
vn -0.2999 -0.7715 -0.5611
vn -0.3651 0.6326 -0.6831
vn -0.3651 -0.6326 -0.6831
vn -0.2999 0.7715 -0.5611
vn -0.2779 0.2890 -0.9161
vn -0.1374 -0.8810 -0.4528
vn -0.2563 0.4696 -0.8448
vn -0.1847 -0.7715 -0.6088
vn -0.2248 0.6326 -0.7412
vn -0.2248 -0.6326 -0.7412
vn -0.1847 0.7715 -0.6088
vn -0.2563 -0.4696 -0.8448
vn -0.1374 0.8810 -0.4528
vn -0.2779 -0.2890 -0.9161
vn -0.0846 0.9565 -0.2790
vn -0.2889 -0.0975 -0.9524
vn -0.0286 -0.9951 -0.0942
vn -0.0286 0.9951 -0.0942
vn -0.2889 0.0975 -0.9524
vn -0.0846 -0.9565 -0.2790
vn -0.0464 0.8810 -0.4709
vn -0.0938 -0.2890 -0.9527
vn -0.0286 0.9565 -0.2902
vn -0.0975 -0.0975 -0.9904
vn -0.0097 -0.9951 -0.0980
vn -0.0097 0.9951 -0.0980
vn -0.0975 0.0975 -0.9904
vn -0.0286 -0.9565 -0.2902
vn -0.0938 0.2890 -0.9527
vn -0.0464 -0.8810 -0.4709
vn -0.0865 0.4696 -0.8786
vn -0.0624 -0.7715 -0.6332
vn -0.0759 0.6326 -0.7708
vn -0.0759 -0.6326 -0.7708
vn -0.0624 0.7715 -0.6332
vn -0.0865 -0.4696 -0.8786
vn 0.0464 -0.8810 -0.4709
vn 0.0865 0.4696 -0.8786
vn 0.0624 -0.7715 -0.6332
vn 0.0759 0.6326 -0.7708
vn 0.0759 -0.6326 -0.7708
vn 0.0624 0.7715 -0.6332
vn 0.0865 -0.4696 -0.8786
vn 0.0464 0.8810 -0.4709
vn 0.0938 -0.2890 -0.9527
vn 0.0286 0.9565 -0.2902
vn 0.0976 -0.0975 -0.9904
vn 0.0097 -0.9951 -0.0980
vn 0.0097 0.9951 -0.0980
vn 0.0976 0.0975 -0.9904
vn 0.0286 -0.9565 -0.2902
vn 0.0938 0.2890 -0.9527
vn 0.2779 -0.2890 -0.9161
vn 0.0846 0.9565 -0.2790
vn 0.2889 -0.0975 -0.9524
vn 0.0286 -0.9951 -0.0942
vn 0.0286 0.9951 -0.0942
vn 0.2889 0.0975 -0.9524
vn 0.0846 -0.9565 -0.2790
vn 0.2779 0.2890 -0.9161
vn 0.1374 -0.8810 -0.4528
vn 0.2563 0.4696 -0.8448
vn 0.1847 -0.7715 -0.6088
vn 0.2248 0.6326 -0.7412
vn 0.2248 -0.6326 -0.7412
vn 0.1847 0.7715 -0.6088
vn 0.2563 -0.4696 -0.8448
vn 0.1374 0.8810 -0.4528
vn 0.4162 0.4696 -0.7786
vn 0.2999 -0.7715 -0.5611
vn 0.3651 0.6326 -0.6831
vn 0.3651 -0.6326 -0.6831
vn 0.2999 0.7715 -0.5611
vn 0.4162 -0.4696 -0.7786
vn 0.2231 0.8810 -0.4173
vn 0.4513 -0.2890 -0.8443
vn 0.1374 0.9565 -0.2571
vn 0.4691 -0.0975 -0.8777
vn 0.0464 -0.9951 -0.0869
vn 0.0464 0.9951 -0.0869
vn 0.4691 0.0975 -0.8777
vn 0.1374 -0.9565 -0.2571
vn 0.4513 0.2890 -0.8443
vn 0.2231 -0.8810 -0.4173
vn 0.1850 0.9565 -0.2254
vn 0.6314 -0.0975 -0.7693
vn 0.0625 -0.9951 -0.0761
vn 0.0625 0.9951 -0.0761
vn 0.6314 0.0975 -0.7693
vn 0.1850 -0.9565 -0.2254
vn 0.6073 0.2890 -0.7400
vn 0.3002 -0.8810 -0.3658
vn 0.5601 0.4696 -0.6825
vn 0.4036 -0.7715 -0.4918
vn 0.4913 0.6326 -0.5987
vn 0.4913 -0.6326 -0.5987
vn 0.4036 0.7715 -0.4918
vn 0.5601 -0.4696 -0.6825
vn 0.3002 0.8810 -0.3658
vn 0.6073 -0.2890 -0.7400
vn 0.5987 0.6326 -0.4913
vn 0.5987 -0.6326 -0.4913
vn 0.4918 0.7715 -0.4036
vn 0.6825 -0.4696 -0.5601
vn 0.3658 0.8810 -0.3002
vn 0.7400 -0.2890 -0.6073
vn 0.2254 0.9565 -0.1850
vn 0.7693 -0.0975 -0.6314
vn 0.0761 -0.9951 -0.0625
vn 0.0761 0.9951 -0.0625
vn 0.7693 0.0975 -0.6314
vn 0.2254 -0.9565 -0.1850
vn 0.7400 0.2890 -0.6073
vn 0.3658 -0.8810 -0.3002
vn 0.6825 0.4696 -0.5601
vn 0.4918 -0.7715 -0.4036
vn 0.0869 -0.9951 -0.0464
vn 0.0869 0.9951 -0.0464
vn 0.8777 0.0975 -0.4691
vn 0.2571 -0.9565 -0.1374
vn 0.8443 0.2890 -0.4513
vn 0.4173 -0.8810 -0.2231
vn 0.7786 0.4696 -0.4162
vn 0.5611 -0.7715 -0.2999
vn 0.6831 0.6326 -0.3651
vn 0.6831 -0.6326 -0.3651
vn 0.5611 0.7715 -0.2999
vn 0.7786 -0.4696 -0.4162
vn 0.4173 0.8810 -0.2231
vn 0.8443 -0.2890 -0.4513
vn 0.2571 0.9565 -0.1374
vn 0.8777 -0.0975 -0.4691
vn 0.7412 -0.6326 -0.2248
vn 0.6088 0.7715 -0.1847
vn 0.8448 -0.4696 -0.2563
vn 0.4528 0.8810 -0.1374
vn 0.9161 -0.2890 -0.2779
vn 0.2790 0.9565 -0.0846
vn 0.9524 -0.0975 -0.2889
vn 0.0942 -0.9951 -0.0286
vn 0.0942 0.9951 -0.0286
vn 0.9524 0.0975 -0.2889
vn 0.2790 -0.9565 -0.0846
vn 0.9161 0.2890 -0.2779
vn 0.4528 -0.8810 -0.1374
vn 0.8448 0.4696 -0.2563
vn 0.6088 -0.7715 -0.1847
vn 0.7412 0.6326 -0.2248
vn 0.9904 0.0975 -0.0975
vn 0.2902 -0.9565 -0.0286
vn 0.9527 0.2890 -0.0938
vn 0.4709 -0.8810 -0.0464
vn 0.8786 0.4696 -0.0865
vn 0.6332 -0.7715 -0.0624
vn 0.7708 0.6326 -0.0759
vn 0.7708 -0.6326 -0.0759
vn 0.6332 0.7715 -0.0624
vn 0.8786 -0.4696 -0.0865
vn 0.4709 0.8810 -0.0464
vn 0.9527 -0.2890 -0.0938
vn 0.2902 0.9565 -0.0286
vn 0.9904 -0.0975 -0.0975
vn 0.0980 -0.9951 -0.0097
vn 0.0980 0.9951 -0.0097
vn 0.6332 0.7715 0.0624
vn 0.8786 -0.4696 0.0865
vn 0.4709 0.8810 0.0464
vn 0.9527 -0.2890 0.0938
vn 0.2902 0.9565 0.0286
vn 0.9904 -0.0975 0.0976
vn 0.0980 -0.9951 0.0097
vn 0.0980 0.9951 0.0097
vn 0.9904 0.0975 0.0976
vn 0.2902 -0.9565 0.0286
vn 0.9527 0.2890 0.0938
vn 0.4709 -0.8810 0.0464
vn 0.8786 0.4696 0.0865
vn 0.6332 -0.7715 0.0624
vn 0.7708 0.6326 0.0759
vn 0.7708 -0.6326 0.0759
vn 0.2790 -0.9565 0.0846
vn 0.9161 0.2890 0.2779
vn 0.4528 -0.8810 0.1374
vn 0.8448 0.4696 0.2563
vn 0.6088 -0.7715 0.1847
vn 0.7412 0.6326 0.2248
vn 0.7412 -0.6326 0.2248
vn 0.6088 0.7715 0.1847
vn 0.8448 -0.4696 0.2563
vn 0.4528 0.8810 0.1374
vn 0.9161 -0.2890 0.2779
vn 0.2790 0.9565 0.0846
vn 0.9524 -0.0975 0.2889
vn 0.0942 -0.9951 0.0286
vn 0.0942 0.9951 0.0286
vn 0.9524 0.0975 0.2889
vn 0.7786 -0.4696 0.4162
vn 0.4173 0.8810 0.2231
vn 0.8443 -0.2890 0.4513
vn 0.2571 0.9565 0.1374
vn 0.8777 -0.0975 0.4691
vn 0.0869 -0.9951 0.0464
vn 0.0869 0.9951 0.0464
vn 0.8777 0.0975 0.4691
vn 0.2571 -0.9565 0.1374
vn 0.8443 0.2890 0.4513
vn 0.4173 -0.8810 0.2231
vn 0.7786 0.4696 0.4162
vn 0.5611 -0.7715 0.2999
vn 0.6831 0.6326 0.3651
vn 0.6831 -0.6326 0.3651
vn 0.5611 0.7715 0.2999
vn 0.7400 0.2890 0.6073
vn 0.3658 -0.8810 0.3002
vn 0.6825 0.4696 0.5601
vn 0.4918 -0.7715 0.4036
vn 0.5987 0.6326 0.4913
vn 0.5987 -0.6326 0.4913
vn 0.4918 0.7715 0.4036
vn 0.6825 -0.4696 0.5601
vn 0.3658 0.8810 0.3002
vn 0.7400 -0.2890 0.6073
vn 0.2254 0.9565 0.1850
vn 0.7693 -0.0975 0.6314
vn 0.0761 -0.9951 0.0625
vn 0.0761 0.9951 0.0625
vn 0.7693 0.0975 0.6314
vn 0.2254 -0.9565 0.1850
vn 0.3002 0.8810 0.3658
vn 0.6073 -0.2890 0.7400
vn 0.1850 0.9565 0.2254
vn 0.6314 -0.0975 0.7693
vn 0.0625 -0.9951 0.0761
vn 0.0625 0.9951 0.0761
vn 0.6314 0.0975 0.7693
vn 0.1850 -0.9565 0.2254
vn 0.6073 0.2890 0.7400
vn 0.3002 -0.8810 0.3658
vn 0.5601 0.4696 0.6825
vn 0.4036 -0.7715 0.4918
vn 0.4913 0.6326 0.5987
vn 0.4913 -0.6326 0.5987
vn 0.4036 0.7715 0.4918
vn 0.5601 -0.4696 0.6825
vn 0.4162 0.4696 0.7786
vn 0.2999 -0.7715 0.5611
vn 0.3651 0.6326 0.6831
vn 0.3651 -0.6326 0.6831
vn 0.2999 0.7715 0.5611
vn 0.4162 -0.4696 0.7786
vn 0.2230 0.8810 0.4173
vn 0.4513 -0.2890 0.8443
vn 0.1374 0.9565 0.2571
vn 0.4691 -0.0975 0.8777
vn 0.0464 -0.9951 0.0869
vn 0.0464 0.9951 0.0869
vn 0.4691 0.0975 0.8777
vn 0.1374 -0.9565 0.2571
vn 0.4513 0.2890 0.8443
vn 0.2230 -0.8810 0.4173
vn 0.0846 0.9565 0.2790
vn 0.2889 -0.0975 0.9524
vn 0.0286 -0.9951 0.0942
vn 0.0286 0.9951 0.0942
vn 0.2889 0.0975 0.9524
vn 0.0846 -0.9565 0.2790
vn 0.2779 0.2890 0.9161
vn 0.1374 -0.8810 0.4528
vn 0.2563 0.4696 0.8448
vn 0.1847 -0.7715 0.6088
vn 0.2248 0.6326 0.7412
vn 0.2248 -0.6326 0.7412
vn 0.1847 0.7715 0.6088
vn 0.2563 -0.4696 0.8448
vn 0.1374 0.8810 0.4528
vn 0.2779 -0.2890 0.9161
vn 0.0624 -0.7715 0.6332
vn 0.0759 0.6326 0.7708
vn 0.0759 -0.6326 0.7708
vn 0.0624 0.7715 0.6332
vn 0.0865 -0.4696 0.8786
vn 0.0464 0.8810 0.4709
vn 0.0938 -0.2890 0.9527
vn 0.0286 0.9565 0.2902
vn 0.0976 -0.0975 0.9904
vn 0.0097 -0.9951 0.0980
vn 0.0097 0.9951 0.0980
vn 0.0976 0.0975 0.9904
vn 0.0286 -0.9565 0.2902
vn 0.0938 0.2890 0.9527
vn 0.0464 -0.8810 0.4709
vn 0.0865 0.4696 0.8786
vn -0.0000 0.9952 -0.0980
vn -0.0000 0.9569 -0.2903
vn -0.0000 0.8819 -0.4714
vn -0.0000 0.7730 -0.6344
vn -0.0000 0.6344 -0.7730
vn -0.0000 0.4714 -0.8819
vn -0.0000 0.2903 -0.9569
vn -0.0000 0.0980 -0.9952
vn -0.0000 -0.0980 -0.9952
vn -0.0000 -0.2903 -0.9569
vn -0.0000 -0.4714 -0.8819
vn -0.0000 -0.6344 -0.7730
vn -0.0000 -0.7730 -0.6344
vn -0.0000 -0.8819 -0.4714
vn -0.0000 -0.9569 -0.2903
vn -0.0000 -0.9952 -0.0980
vn -0.0000 -0.9952 0.0980
vn -0.0000 -0.9569 0.2903
vn -0.0000 -0.8819 0.4714
vn -0.0000 -0.7730 0.6344
vn -0.0000 -0.6344 0.7730
vn -0.0000 -0.4714 0.8819
vn -0.0000 -0.2903 0.9569
vn -0.0000 -0.0980 0.9952
vn -0.0000 0.0980 0.9952
vn -0.0000 0.2903 0.9569
vn -0.0000 0.4714 0.8819
vn -0.0000 0.6344 0.7730
vn -0.0000 0.7730 0.6344
vn -0.0000 0.8819 0.4714
vn -1.0000 -0.0000 -0.0000
vn -0.0000 0.9569 0.2903
vn -0.0000 0.9952 0.0980
vn 1.0000 -0.0000 -0.0000
vt 0.750000 0.312500
vt 0.750000 0.375000
vt 0.718750 0.375000
vt 0.718750 0.312500
vt 0.750000 0.750000
vt 0.750000 0.812500
vt 0.718750 0.812500
vt 0.718750 0.750000
vt 0.750000 0.250000
vt 0.718750 0.250000
vt 0.750000 0.687500
vt 0.718750 0.687500
vt 0.750000 0.187500
vt 0.718750 0.187500
vt 0.750000 0.625000
vt 0.718750 0.625000
vt 0.750000 0.125000
vt 0.718750 0.125000
vt 0.750000 0.562500
vt 0.718750 0.562500
vt 0.750000 0.062500
vt 0.718750 0.062500
vt 0.750000 0.500000
vt 0.718750 0.500000
vt 0.750000 0.937500
vt 0.734375 1.000000
vt 0.718750 0.937500
vt 0.734375 0.000000
vt 0.750000 0.437500
vt 0.718750 0.437500
vt 0.750000 0.875000
vt 0.718750 0.875000
vt 0.687500 0.437500
vt 0.687500 0.375000
vt 0.687500 0.875000
vt 0.687500 0.812500
vt 0.687500 0.312500
vt 0.687500 0.750000
vt 0.687500 0.250000
vt 0.687500 0.687500
vt 0.687500 0.187500
vt 0.687500 0.625000
vt 0.687500 0.125000
vt 0.687500 0.562500
vt 0.687500 0.062500
vt 0.687500 0.500000
vt 0.703125 1.000000
vt 0.687500 0.937500
vt 0.703125 0.000000
vt 0.656250 0.187500
vt 0.656250 0.125000
vt 0.656250 0.625000
vt 0.656250 0.562500
vt 0.656250 0.062500
vt 0.656250 0.500000
vt 0.671875 1.000000
vt 0.656250 0.937500
vt 0.671875 0.000000
vt 0.656250 0.437500
vt 0.656250 0.875000
vt 0.656250 0.375000
vt 0.656250 0.812500
vt 0.656250 0.312500
vt 0.656250 0.750000
vt 0.656250 0.250000
vt 0.656250 0.687500
vt 0.625000 0.875000
vt 0.625000 0.812500
vt 0.625000 0.375000
vt 0.625000 0.312500
vt 0.625000 0.750000
vt 0.625000 0.250000
vt 0.625000 0.687500
vt 0.625000 0.187500
vt 0.625000 0.625000
vt 0.625000 0.125000
vt 0.625000 0.562500
vt 0.625000 0.062500
vt 0.625000 0.500000
vt 0.640625 1.000000
vt 0.625000 0.937500
vt 0.640625 0.000000
vt 0.625000 0.437500
vt 0.593750 0.625000
vt 0.593750 0.562500
vt 0.593750 0.125000
vt 0.593750 0.062500
vt 0.593750 0.500000
vt 0.609375 1.000000
vt 0.593750 0.937500
vt 0.609375 0.000000
vt 0.593750 0.437500
vt 0.593750 0.875000
vt 0.593750 0.375000
vt 0.593750 0.812500
vt 0.593750 0.312500
vt 0.593750 0.750000
vt 0.593750 0.250000
vt 0.593750 0.687500
vt 0.593750 0.187500
vt 0.562500 0.375000
vt 0.562500 0.312500
vt 0.562500 0.812500
vt 0.562500 0.750000
vt 0.562500 0.250000
vt 0.562500 0.687500
vt 0.562500 0.187500
vt 0.562500 0.625000
vt 0.562500 0.125000
vt 0.562500 0.562500
vt 0.562500 0.062500
vt 0.562500 0.500000
vt 0.578125 1.000000
vt 0.562500 0.937500
vt 0.578125 0.000000
vt 0.562500 0.437500
vt 0.562500 0.875000
vt 0.531250 0.125000
vt 0.531250 0.062500
vt 0.531250 0.562500
vt 0.531250 0.500000
vt 0.546875 1.000000
vt 0.531250 0.937500
vt 0.546875 0.000000
vt 0.531250 0.437500
vt 0.531250 0.875000
vt 0.531250 0.375000
vt 0.531250 0.812500
vt 0.531250 0.312500
vt 0.531250 0.750000
vt 0.531250 0.250000
vt 0.531250 0.687500
vt 0.531250 0.187500
vt 0.531250 0.625000
vt 0.500000 0.812500
vt 0.500000 0.750000
vt 0.500000 0.312500
vt 0.500000 0.250000
vt 0.500000 0.687500
vt 0.500000 0.187500
vt 0.500000 0.625000
vt 0.500000 0.125000
vt 0.500000 0.562500
vt 0.500000 0.062500
vt 0.500000 0.500000
vt 0.515625 1.000000
vt 0.500000 0.937500
vt 0.515625 0.000000
vt 0.500000 0.437500
vt 0.500000 0.875000
vt 0.500000 0.375000
vt 0.468750 0.562500
vt 0.468750 0.500000
vt 0.484375 1.000000
vt 0.468750 0.937500
vt 0.484375 0.000000
vt 0.468750 0.062500
vt 0.468750 0.437500
vt 0.468750 0.875000
vt 0.468750 0.375000
vt 0.468750 0.812500
vt 0.468750 0.312500
vt 0.468750 0.750000
vt 0.468750 0.250000
vt 0.468750 0.687500
vt 0.468750 0.187500
vt 0.468750 0.625000
vt 0.468750 0.125000
vt 0.437500 0.312500
vt 0.437500 0.250000
vt 0.437500 0.750000
vt 0.437500 0.687500
vt 0.437500 0.187500
vt 0.437500 0.625000
vt 0.437500 0.125000
vt 0.437500 0.562500
vt 0.437500 0.062500
vt 0.437500 0.500000
vt 0.453125 1.000000
vt 0.437500 0.937500
vt 0.453125 0.000000
vt 0.437500 0.437500
vt 0.437500 0.875000
vt 0.437500 0.375000
vt 0.437500 0.812500
vt 0.421875 0.000000
vt 0.406250 0.062500
vt 0.406250 0.500000
vt 0.406250 0.437500
vt 0.406250 0.937500
vt 0.406250 0.875000
vt 0.406250 0.375000
vt 0.406250 0.812500
vt 0.406250 0.312500
vt 0.406250 0.750000
vt 0.406250 0.250000
vt 0.406250 0.687500
vt 0.406250 0.187500
vt 0.406250 0.625000
vt 0.406250 0.125000
vt 0.406250 0.562500
vt 0.421875 1.000000
vt 0.375000 0.250000
vt 0.375000 0.187500
vt 0.375000 0.687500
vt 0.375000 0.625000
vt 0.375000 0.125000
vt 0.375000 0.562500
vt 0.375000 0.062500
vt 0.375000 0.500000
vt 0.390625 1.000000
vt 0.375000 0.937500
vt 0.390625 0.000000
vt 0.375000 0.437500
vt 0.375000 0.875000
vt 0.375000 0.375000
vt 0.375000 0.812500
vt 0.375000 0.312500
vt 0.375000 0.750000
vt 0.343750 0.937500
vt 0.343750 0.875000
vt 0.343750 0.437500
vt 0.343750 0.375000
vt 0.343750 0.812500
vt 0.343750 0.312500
vt 0.343750 0.750000
vt 0.343750 0.250000
vt 0.343750 0.687500
vt 0.343750 0.187500
vt 0.343750 0.625000
vt 0.343750 0.125000
vt 0.343750 0.562500
vt 0.343750 0.062500
vt 0.343750 0.500000
vt 0.359375 1.000000
vt 0.359375 0.000000
vt 0.312500 0.687500
vt 0.312500 0.625000
vt 0.312500 0.187500
vt 0.312500 0.125000
vt 0.312500 0.562500
vt 0.312500 0.062500
vt 0.312500 0.500000
vt 0.328125 1.000000
vt 0.312500 0.937500
vt 0.328125 0.000000
vt 0.312500 0.437500
vt 0.312500 0.875000
vt 0.312500 0.375000
vt 0.312500 0.812500
vt 0.312500 0.312500
vt 0.312500 0.750000
vt 0.312500 0.250000
vt 0.281250 0.437500
vt 0.281250 0.375000
vt 0.281250 0.875000
vt 0.281250 0.812500
vt 0.281250 0.312500
vt 0.281250 0.750000
vt 0.281250 0.250000
vt 0.281250 0.687500
vt 0.281250 0.187500
vt 0.281250 0.625000
vt 0.281250 0.125000
vt 0.281250 0.562500
vt 0.281250 0.062500
vt 0.281250 0.500000
vt 0.296875 1.000000
vt 0.281250 0.937500
vt 0.296875 0.000000
vt 0.250000 0.187500
vt 0.250000 0.125000
vt 0.250000 0.625000
vt 0.250000 0.562500
vt 0.250000 0.062500
vt 0.250000 0.500000
vt 0.265625 1.000000
vt 0.250000 0.937500
vt 0.265625 0.000000
vt 0.250000 0.437500
vt 0.250000 0.875000
vt 0.250000 0.375000
vt 0.250000 0.812500
vt 0.250000 0.312500
vt 0.250000 0.750000
vt 0.250000 0.250000
vt 0.250000 0.687500
vt 0.218750 0.875000
vt 0.218750 0.812500
vt 0.218750 0.375000
vt 0.218750 0.312500
vt 0.218750 0.750000
vt 0.218750 0.250000
vt 0.218750 0.687500
vt 0.218750 0.187500
vt 0.218750 0.625000
vt 0.218750 0.125000
vt 0.218750 0.562500
vt 0.218750 0.062500
vt 0.218750 0.500000
vt 0.234375 1.000000
vt 0.218750 0.937500
vt 0.234375 0.000000
vt 0.218750 0.437500
vt 0.187500 0.625000
vt 0.187500 0.562500
vt 0.187500 0.125000
vt 0.187500 0.062500
vt 0.187500 0.500000
vt 0.203125 1.000000
vt 0.187500 0.937500
vt 0.203125 0.000000
vt 0.187500 0.437500
vt 0.187500 0.875000
vt 0.187500 0.375000
vt 0.187500 0.812500
vt 0.187500 0.312500
vt 0.187500 0.750000
vt 0.187500 0.250000
vt 0.187500 0.687500
vt 0.187500 0.187500
vt 0.156250 0.375000
vt 0.156250 0.312500
vt 0.156250 0.812500
vt 0.156250 0.750000
vt 0.156250 0.250000
vt 0.156250 0.687500
vt 0.156250 0.187500
vt 0.156250 0.625000
vt 0.156250 0.125000
vt 0.156250 0.562500
vt 0.156250 0.062500
vt 0.156250 0.500000
vt 0.171875 1.000000
vt 0.156250 0.937500
vt 0.171875 0.000000
vt 0.156250 0.437500
vt 0.156250 0.875000
vt 0.125000 0.125000
vt 0.125000 0.062500
vt 0.125000 0.562500
vt 0.125000 0.500000
vt 0.140625 1.000000
vt 0.125000 0.937500
vt 0.140625 0.000000
vt 0.125000 0.437500
vt 0.125000 0.875000
vt 0.125000 0.375000
vt 0.125000 0.812500
vt 0.125000 0.312500
vt 0.125000 0.750000
vt 0.125000 0.250000
vt 0.125000 0.687500
vt 0.125000 0.187500
vt 0.125000 0.625000
vt 0.093750 0.312500
vt 0.093750 0.250000
vt 0.093750 0.750000
vt 0.093750 0.687500
vt 0.093750 0.187500
vt 0.093750 0.625000
vt 0.093750 0.125000
vt 0.093750 0.562500
vt 0.093750 0.062500
vt 0.093750 0.500000
vt 0.109375 1.000000
vt 0.093750 0.937500
vt 0.109375 0.000000
vt 0.093750 0.437500
vt 0.093750 0.875000
vt 0.093750 0.375000
vt 0.093750 0.812500
vt 0.078125 1.000000
vt 0.062500 0.937500
vt 0.078125 0.000000
vt 0.062500 0.062500
vt 0.062500 0.500000
vt 0.062500 0.437500
vt 0.062500 0.875000
vt 0.062500 0.375000
vt 0.062500 0.812500
vt 0.062500 0.312500
vt 0.062500 0.750000
vt 0.062500 0.250000
vt 0.062500 0.687500
vt 0.062500 0.187500
vt 0.062500 0.625000
vt 0.062500 0.125000
vt 0.062500 0.562500
vt 0.031250 0.750000
vt 0.031250 0.687500
vt 0.031250 0.250000
vt 0.031250 0.187500
vt 0.031250 0.625000
vt 0.031250 0.125000
vt 0.031250 0.562500
vt 0.031250 0.062500
vt 0.031250 0.500000
vt 0.046875 1.000000
vt 0.031250 0.937500
vt 0.046875 0.000000
vt 0.031250 0.437500
vt 0.031250 0.875000
vt 0.031250 0.375000
vt 0.031250 0.812500
vt 0.031250 0.312500
vt 0.000000 0.500000
vt 0.000000 0.437500
vt 0.000000 0.937500
vt 0.000000 0.875000
vt 0.000000 0.375000
vt 0.000000 0.812500
vt 0.000000 0.312500
vt 0.000000 0.750000
vt 0.000000 0.250000
vt 0.000000 0.687500
vt 0.000000 0.187500
vt 0.000000 0.625000
vt 0.000000 0.125000
vt 0.000000 0.562500
vt 0.000000 0.062500
vt 0.015625 1.000000
vt 0.015625 0.000000
vt 1.000000 0.187500
vt 1.000000 0.250000
vt 0.968750 0.250000
vt 0.968750 0.187500
vt 1.000000 0.625000
vt 1.000000 0.687500
vt 0.968750 0.687500
vt 0.968750 0.625000
vt 1.000000 0.125000
vt 0.968750 0.125000
vt 1.000000 0.562500
vt 0.968750 0.562500
vt 1.000000 0.062500
vt 0.968750 0.062500
vt 1.000000 0.500000
vt 0.968750 0.500000
vt 1.000000 0.937500
vt 0.984375 1.000000
vt 0.968750 0.937500
vt 0.984375 0.000000
vt 1.000000 0.437500
vt 0.968750 0.437500
vt 1.000000 0.875000
vt 0.968750 0.875000
vt 1.000000 0.375000
vt 0.968750 0.375000
vt 1.000000 0.812500
vt 0.968750 0.812500
vt 1.000000 0.312500
vt 0.968750 0.312500
vt 1.000000 0.750000
vt 0.968750 0.750000
vt 0.937500 0.937500
vt 0.937500 0.875000
vt 0.937500 0.437500
vt 0.937500 0.375000
vt 0.937500 0.812500
vt 0.937500 0.312500
vt 0.937500 0.750000
vt 0.937500 0.250000
vt 0.937500 0.687500
vt 0.937500 0.187500
vt 0.937500 0.625000
vt 0.937500 0.125000
vt 0.937500 0.562500
vt 0.937500 0.062500
vt 0.937500 0.500000
vt 0.953125 1.000000
vt 0.953125 0.000000
vt 0.906250 0.687500
vt 0.906250 0.625000
vt 0.906250 0.187500
vt 0.906250 0.125000
vt 0.906250 0.562500
vt 0.906250 0.062500
vt 0.906250 0.500000
vt 0.921875 1.000000
vt 0.906250 0.937500
vt 0.921875 0.000000
vt 0.906250 0.437500
vt 0.906250 0.875000
vt 0.906250 0.375000
vt 0.906250 0.812500
vt 0.906250 0.312500
vt 0.906250 0.750000
vt 0.906250 0.250000
vt 0.875000 0.437500
vt 0.875000 0.375000
vt 0.875000 0.875000
vt 0.875000 0.812500
vt 0.875000 0.312500
vt 0.875000 0.750000
vt 0.875000 0.250000
vt 0.875000 0.687500
vt 0.875000 0.187500
vt 0.875000 0.625000
vt 0.875000 0.125000
vt 0.875000 0.562500
vt 0.875000 0.062500
vt 0.875000 0.500000
vt 0.890625 1.000000
vt 0.875000 0.937500
vt 0.890625 0.000000
vt 0.843750 0.187500
vt 0.843750 0.125000
vt 0.843750 0.625000
vt 0.843750 0.562500
vt 0.843750 0.062500
vt 0.843750 0.500000
vt 0.859375 1.000000
vt 0.843750 0.937500
vt 0.859375 0.000000
vt 0.843750 0.437500
vt 0.843750 0.875000
vt 0.843750 0.375000
vt 0.843750 0.812500
vt 0.843750 0.312500
vt 0.843750 0.750000
vt 0.843750 0.250000
vt 0.843750 0.687500
vt 0.812500 0.375000
vt 0.812500 0.312500
vt 0.812500 0.812500
vt 0.812500 0.750000
vt 0.812500 0.250000
vt 0.812500 0.687500
vt 0.812500 0.187500
vt 0.812500 0.625000
vt 0.812500 0.125000
vt 0.812500 0.562500
vt 0.812500 0.062500
vt 0.812500 0.500000
vt 0.828125 1.000000
vt 0.812500 0.937500
vt 0.828125 0.000000
vt 0.812500 0.437500
vt 0.812500 0.875000
vt 0.781250 0.125000
vt 0.781250 0.062500
vt 0.781250 0.562500
vt 0.781250 0.500000
vt 0.796875 1.000000
vt 0.781250 0.937500
vt 0.796875 0.000000
vt 0.781250 0.437500
vt 0.781250 0.875000
vt 0.781250 0.375000
vt 0.781250 0.812500
vt 0.781250 0.312500
vt 0.781250 0.750000
vt 0.781250 0.250000
vt 0.781250 0.687500
vt 0.781250 0.187500
vt 0.781250 0.625000
vt 0.765625 1.000000
vt 0.765625 0.000000
vt 1.000000 1.000000
vt 0.968750 1.000000
vt 0.968750 0.500000
vt 0.937500 1.000000
vt 0.937500 0.500000
vt 0.906250 1.000000
vt 0.906250 0.500000
vt 0.875000 1.000000
vt 0.875000 0.500000
vt 0.843750 1.000000
vt 0.843750 0.500000
vt 0.812500 1.000000
vt 0.812500 0.500000
vt 0.781250 1.000000
vt 0.781250 0.500000
vt 0.750000 1.000000
vt 0.718750 1.000000
vt 0.687500 1.000000
vt 0.656250 1.000000
vt 0.625000 1.000000
vt 0.593750 1.000000
vt 0.562500 1.000000
vt 0.531250 1.000000
vt 0.500000 1.000000
vt 0.500000 0.500000
vt 0.468750 1.000000
vt 0.468750 0.500000
vt 0.437500 1.000000
vt 0.437500 0.500000
vt 0.406250 1.000000
vt 0.406250 0.500000
vt 0.375000 1.000000
vt 0.375000 0.500000
vt 0.343750 1.000000
vt 0.343750 0.500000
vt 0.312500 1.000000
vt 0.312500 0.500000
vt 0.281250 1.000000
vt 0.281250 0.500000
vt 0.250000 1.000000
vt 0.250000 0.500000
vt 0.218750 1.000000
vt 0.218750 0.500000
vt 0.187500 1.000000
vt 0.187500 0.500000
vt 0.156250 1.000000
vt 0.156250 0.500000
vt 0.125000 1.000000
vt 0.125000 0.500000
vt 0.093750 1.000000
vt 0.093750 0.500000
vt 0.062500 1.000000
vt 0.062500 0.500000
vt 0.296822 0.485388
vt 0.250000 0.490000
vt 0.203178 0.485388
vt 0.158156 0.471731
vt 0.116663 0.449553
vt 0.080294 0.419706
vt 0.050447 0.383337
vt 0.028269 0.341844
vt 0.014612 0.296822
vt 0.010000 0.250000
vt 0.014612 0.203178
vt 0.028269 0.158156
vt 0.050447 0.116663
vt 0.080294 0.080294
vt 0.116663 0.050447
vt 0.158156 0.028269
vt 0.203178 0.014612
vt 0.250000 0.010000
vt 0.296822 0.014612
vt 0.341844 0.028269
vt 0.383337 0.050447
vt 0.419706 0.080294
vt 0.449553 0.116663
vt 0.471731 0.158156
vt 0.485388 0.203178
vt 0.490000 0.250000
vt 0.485388 0.296822
vt 0.471731 0.341844
vt 0.449553 0.383337
vt 0.419706 0.419706
vt 0.383337 0.449553
vt 0.341844 0.471731
vt 0.031250 1.000000
vt 0.031250 0.500000
vt 0.000000 1.000000
vt 0.750000 0.490000
vt 0.796822 0.485388
vt 0.841844 0.471731
vt 0.883337 0.449553
vt 0.919706 0.419706
vt 0.949553 0.383337
vt 0.971731 0.341844
vt 0.985388 0.296822
vt 0.990000 0.250000
vt 0.985388 0.203178
vt 0.971731 0.158156
vt 0.949553 0.116663
vt 0.919706 0.080294
vt 0.883337 0.050447
vt 0.841844 0.028269
vt 0.796822 0.014612
vt 0.750000 0.010000
vt 0.703178 0.014612
vt 0.658156 0.028269
vt 0.616663 0.050447
vt 0.580294 0.080294
vt 0.550447 0.116663
vt 0.528269 0.158156
vt 0.514612 0.203178
vt 0.510000 0.250000
vt 0.514612 0.296822
vt 0.528269 0.341844
vt 0.550447 0.383337
vt 0.580294 0.419706
vt 0.616663 0.449553
vt 0.658156 0.471731
vt 0.703178 0.485388
s 0
f 6/1/1 17/4/1 16/3/1 478/2/1
f 476/5/2 10/8/2 9/7/2 1/6/2
f 479/9/3 18/10/3 17/4/3 6/1/3
f 2/11/4 11/12/4 10/8/4 476/5/4
f 480/13/5 19/14/5 18/10/5 479/9/5
f 477/15/6 12/16/6 11/12/6 2/11/6
f 481/17/7 20/18/7 19/14/7 480/13/7
f 3/19/8 13/20/8 12/16/8 477/15/8
f 482/21/9 21/22/9 20/18/9 481/17/9
f 4/23/10 14/24/10 13/20/10 3/19/10
f 474/25/11 7/27/11 82/26/11
f 308/28/12 21/22/12 482/21/12
f 5/29/13 15/30/13 14/24/13 4/23/13
f 475/31/14 8/32/14 7/27/14 474/25/14
f 478/2/15 16/3/15 15/30/15 5/29/15
f 1/6/16 9/7/16 8/32/16 475/31/16
f 16/3/17 31/34/17 30/33/17 15/30/17
f 9/7/18 24/36/18 23/35/18 8/32/18
f 17/4/19 32/37/19 31/34/19 16/3/19
f 10/8/20 25/38/20 24/36/20 9/7/20
f 18/10/21 33/39/21 32/37/21 17/4/21
f 11/12/22 26/40/22 25/38/22 10/8/22
f 19/14/23 34/41/23 33/39/23 18/10/23
f 12/16/24 27/42/24 26/40/24 11/12/24
f 20/18/25 35/43/25 34/41/25 19/14/25
f 13/20/26 28/44/26 27/42/26 12/16/26
f 21/22/27 36/45/27 35/43/27 20/18/27
f 14/24/28 29/46/28 28/44/28 13/20/28
f 7/27/29 22/48/29 82/47/29
f 308/49/30 36/45/30 21/22/30
f 15/30/31 30/33/31 29/46/31 14/24/31
f 8/32/32 23/35/32 22/48/32 7/27/32
f 35/43/33 50/51/33 49/50/33 34/41/33
f 28/44/34 43/53/34 42/52/34 27/42/34
f 36/45/35 51/54/35 50/51/35 35/43/35
f 29/46/36 44/55/36 43/53/36 28/44/36
f 22/48/37 37/57/37 82/56/37
f 308/58/38 51/54/38 36/45/38
f 30/33/39 45/59/39 44/55/39 29/46/39
f 23/35/40 38/60/40 37/57/40 22/48/40
f 31/34/41 46/61/41 45/59/41 30/33/41
f 24/36/42 39/62/42 38/60/42 23/35/42
f 32/37/43 47/63/43 46/61/43 31/34/43
f 25/38/44 40/64/44 39/62/44 24/36/44
f 33/39/45 48/65/45 47/63/45 32/37/45
f 26/40/46 41/66/46 40/64/46 25/38/46
f 34/41/47 49/50/47 48/65/47 33/39/47
f 27/42/48 42/52/48 41/66/48 26/40/48
f 39/62/49 54/68/49 53/67/49 38/60/49
f 47/63/50 62/70/50 61/69/50 46/61/50
f 40/64/51 55/71/51 54/68/51 39/62/51
f 48/65/52 63/72/52 62/70/52 47/63/52
f 41/66/53 56/73/53 55/71/53 40/64/53
f 49/50/54 64/74/54 63/72/54 48/65/54
f 42/52/55 57/75/55 56/73/55 41/66/55
f 50/51/56 65/76/56 64/74/56 49/50/56
f 43/53/57 58/77/57 57/75/57 42/52/57
f 51/54/58 66/78/58 65/76/58 50/51/58
f 44/55/59 59/79/59 58/77/59 43/53/59
f 37/57/60 52/81/60 82/80/60
f 308/82/61 66/78/61 51/54/61
f 45/59/62 60/83/62 59/79/62 44/55/62
f 38/60/63 53/67/63 52/81/63 37/57/63
f 46/61/64 61/69/64 60/83/64 45/59/64
f 58/77/65 73/85/65 72/84/65 57/75/65
f 66/78/66 81/87/66 80/86/66 65/76/66
f 59/79/67 74/88/67 73/85/67 58/77/67
f 52/81/68 67/90/68 82/89/68
f 308/91/69 81/87/69 66/78/69
f 60/83/70 75/92/70 74/88/70 59/79/70
f 53/67/71 68/93/71 67/90/71 52/81/71
f 61/69/72 76/94/72 75/92/72 60/83/72
f 54/68/73 69/95/73 68/93/73 53/67/73
f 62/70/74 77/96/74 76/94/74 61/69/74
f 55/71/75 70/97/75 69/95/75 54/68/75
f 63/72/76 78/98/76 77/96/76 62/70/76
f 56/73/77 71/99/77 70/97/77 55/71/77
f 64/74/78 79/100/78 78/98/78 63/72/78
f 57/75/79 72/84/79 71/99/79 56/73/79
f 65/76/80 80/86/80 79/100/80 64/74/80
f 77/96/81 93/102/81 92/101/81 76/94/81
f 70/97/82 86/104/82 85/103/82 69/95/82
f 78/98/83 94/105/83 93/102/83 77/96/83
f 71/99/84 87/106/84 86/104/84 70/97/84
f 79/100/85 95/107/85 94/105/85 78/98/85
f 72/84/86 88/108/86 87/106/86 71/99/86
f 80/86/87 96/109/87 95/107/87 79/100/87
f 73/85/88 89/110/88 88/108/88 72/84/88
f 81/87/89 97/111/89 96/109/89 80/86/89
f 74/88/90 90/112/90 89/110/90 73/85/90
f 67/90/91 83/114/91 82/113/91
f 308/115/92 97/111/92 81/87/92
f 75/92/93 91/116/93 90/112/93 74/88/93
f 68/93/94 84/117/94 83/114/94 67/90/94
f 76/94/95 92/101/95 91/116/95 75/92/95
f 69/95/96 85/103/96 84/117/96 68/93/96
f 97/111/97 112/119/97 111/118/97 96/109/97
f 90/112/98 105/121/98 104/120/98 89/110/98
f 83/114/99 98/123/99 82/122/99
f 308/124/100 112/119/100 97/111/100
f 91/116/101 106/125/101 105/121/101 90/112/101
f 84/117/102 99/126/102 98/123/102 83/114/102
f 92/101/103 107/127/103 106/125/103 91/116/103
f 85/103/104 100/128/104 99/126/104 84/117/104
f 93/102/105 108/129/105 107/127/105 92/101/105
f 86/104/106 101/130/106 100/128/106 85/103/106
f 94/105/107 109/131/107 108/129/107 93/102/107
f 87/106/108 102/132/108 101/130/108 86/104/108
f 95/107/109 110/133/109 109/131/109 94/105/109
f 88/108/110 103/134/110 102/132/110 87/106/110
f 96/109/111 111/118/111 110/133/111 95/107/111
f 89/110/112 104/120/112 103/134/112 88/108/112
f 101/130/113 116/136/113 115/135/113 100/128/113
f 109/131/114 124/138/114 123/137/114 108/129/114
f 102/132/115 117/139/115 116/136/115 101/130/115
f 110/133/116 125/140/116 124/138/116 109/131/116
f 103/134/117 118/141/117 117/139/117 102/132/117
f 111/118/118 126/142/118 125/140/118 110/133/118
f 104/120/119 119/143/119 118/141/119 103/134/119
f 112/119/120 127/144/120 126/142/120 111/118/120
f 105/121/121 120/145/121 119/143/121 104/120/121
f 98/123/122 113/147/122 82/146/122
f 308/148/123 127/144/123 112/119/123
f 106/125/124 121/149/124 120/145/124 105/121/124
f 99/126/125 114/150/125 113/147/125 98/123/125
f 107/127/126 122/151/126 121/149/126 106/125/126
f 100/128/127 115/135/127 114/150/127 99/126/127
f 108/129/128 123/137/128 122/151/128 107/127/128
f 120/145/129 135/153/129 134/152/129 119/143/129
f 113/147/130 128/155/130 82/154/130
f 308/156/131 142/157/131 127/144/131
f 121/149/132 136/158/132 135/153/132 120/145/132
f 114/150/133 129/159/133 128/155/133 113/147/133
f 122/151/134 137/160/134 136/158/134 121/149/134
f 115/135/135 130/161/135 129/159/135 114/150/135
f 123/137/136 138/162/136 137/160/136 122/151/136
f 116/136/137 131/163/137 130/161/137 115/135/137
f 124/138/138 139/164/138 138/162/138 123/137/138
f 117/139/139 132/165/139 131/163/139 116/136/139
f 125/140/140 140/166/140 139/164/140 124/138/140
f 118/141/141 133/167/141 132/165/141 117/139/141
f 126/142/142 141/168/142 140/166/142 125/140/142
f 119/143/143 134/152/143 133/167/143 118/141/143
f 127/144/144 142/157/144 141/168/144 126/142/144
f 139/164/145 154/170/145 153/169/145 138/162/145
f 132/165/146 147/172/146 146/171/146 131/163/146
f 140/166/147 155/173/147 154/170/147 139/164/147
f 133/167/148 148/174/148 147/172/148 132/165/148
f 141/168/149 156/175/149 155/173/149 140/166/149
f 134/152/150 149/176/150 148/174/150 133/167/150
f 142/157/151 157/177/151 156/175/151 141/168/151
f 135/153/152 150/178/152 149/176/152 134/152/152
f 128/155/153 143/180/153 82/179/153
f 308/181/154 157/177/154 142/157/154
f 136/158/155 151/182/155 150/178/155 135/153/155
f 129/159/156 144/183/156 143/180/156 128/155/156
f 137/160/157 152/184/157 151/182/157 136/158/157
f 130/161/158 145/185/158 144/183/158 129/159/158
f 138/162/159 153/169/159 152/184/159 137/160/159
f 131/163/160 146/171/160 145/185/160 130/161/160
f 308/186/161 172/187/161 157/177/161
f 151/182/162 166/189/162 165/188/162 150/178/162
f 144/183/163 159/191/163 158/190/163 143/180/163
f 152/184/164 167/192/164 166/189/164 151/182/164
f 145/185/165 160/193/165 159/191/165 144/183/165
f 153/169/166 168/194/166 167/192/166 152/184/166
f 146/171/167 161/195/167 160/193/167 145/185/167
f 154/170/168 169/196/168 168/194/168 153/169/168
f 147/172/169 162/197/169 161/195/169 146/171/169
f 155/173/170 170/198/170 169/196/170 154/170/170
f 148/174/171 163/199/171 162/197/171 147/172/171
f 156/175/172 171/200/172 170/198/172 155/173/172
f 149/176/173 164/201/173 163/199/173 148/174/173
f 157/177/174 172/187/174 171/200/174 156/175/174
f 150/178/175 165/188/175 164/201/175 149/176/175
f 143/180/176 158/190/176 82/202/176
f 170/198/177 185/204/177 184/203/177 169/196/177
f 163/199/178 178/206/178 177/205/178 162/197/178
f 171/200/179 186/207/179 185/204/179 170/198/179
f 164/201/180 179/208/180 178/206/180 163/199/180
f 172/187/181 187/209/181 186/207/181 171/200/181
f 165/188/182 180/210/182 179/208/182 164/201/182
f 158/190/183 173/212/183 82/211/183
f 308/213/184 187/209/184 172/187/184
f 166/189/185 181/214/185 180/210/185 165/188/185
f 159/191/186 174/215/186 173/212/186 158/190/186
f 167/192/187 182/216/187 181/214/187 166/189/187
f 160/193/188 175/217/188 174/215/188 159/191/188
f 168/194/189 183/218/189 182/216/189 167/192/189
f 161/195/190 176/219/190 175/217/190 160/193/190
f 169/196/191 184/203/191 183/218/191 168/194/191
f 162/197/192 177/205/192 176/219/192 161/195/192
f 174/215/193 189/221/193 188/220/193 173/212/193
f 182/216/194 197/223/194 196/222/194 181/214/194
f 175/217/195 190/224/195 189/221/195 174/215/195
f 183/218/196 198/225/196 197/223/196 182/216/196
f 176/219/197 191/226/197 190/224/197 175/217/197
f 184/203/198 199/227/198 198/225/198 183/218/198
f 177/205/199 192/228/199 191/226/199 176/219/199
f 185/204/200 200/229/200 199/227/200 184/203/200
f 178/206/201 193/230/201 192/228/201 177/205/201
f 186/207/202 201/231/202 200/229/202 185/204/202
f 179/208/203 194/232/203 193/230/203 178/206/203
f 187/209/204 202/233/204 201/231/204 186/207/204
f 180/210/205 195/234/205 194/232/205 179/208/205
f 173/212/206 188/220/206 82/235/206
f 308/236/207 202/233/207 187/209/207
f 181/214/208 196/222/208 195/234/208 180/210/208
f 193/230/209 208/238/209 207/237/209 192/228/209
f 201/231/210 216/240/210 215/239/210 200/229/210
f 194/232/211 209/241/211 208/238/211 193/230/211
f 202/233/212 217/242/212 216/240/212 201/231/212
f 195/234/213 210/243/213 209/241/213 194/232/213
f 188/220/214 203/245/214 82/244/214
f 308/246/215 217/242/215 202/233/215
f 196/222/216 211/247/216 210/243/216 195/234/216
f 189/221/217 204/248/217 203/245/217 188/220/217
f 197/223/218 212/249/218 211/247/218 196/222/218
f 190/224/219 205/250/219 204/248/219 189/221/219
f 198/225/220 213/251/220 212/249/220 197/223/220
f 191/226/221 206/252/221 205/250/221 190/224/221
f 199/227/222 214/253/222 213/251/222 198/225/222
f 192/228/223 207/237/223 206/252/223 191/226/223
f 200/229/224 215/239/224 214/253/224 199/227/224
f 212/249/225 227/255/225 226/254/225 211/247/225
f 205/250/226 220/257/226 219/256/226 204/248/226
f 213/251/227 228/258/227 227/255/227 212/249/227
f 206/252/228 221/259/228 220/257/228 205/250/228
f 214/253/229 229/260/229 228/258/229 213/251/229
f 207/237/230 222/261/230 221/259/230 206/252/230
f 215/239/231 230/262/231 229/260/231 214/253/231
f 208/238/232 223/263/232 222/261/232 207/237/232
f 216/240/233 231/264/233 230/262/233 215/239/233
f 209/241/234 224/265/234 223/263/234 208/238/234
f 217/242/235 232/266/235 231/264/235 216/240/235
f 210/243/236 225/267/236 224/265/236 209/241/236
f 203/245/237 218/269/237 82/268/237
f 308/270/238 232/266/238 217/242/238
f 211/247/239 226/254/239 225/267/239 210/243/239
f 204/248/240 219/256/240 218/269/240 203/245/240
f 231/264/241 246/272/241 245/271/241 230/262/241
f 224/265/242 239/274/242 238/273/242 223/263/242
f 232/266/243 247/275/243 246/272/243 231/264/243
f 225/267/244 240/276/244 239/274/244 224/265/244
f 218/269/245 233/278/245 82/277/245
f 308/279/246 247/275/246 232/266/246
f 226/254/247 241/280/247 240/276/247 225/267/247
f 219/256/248 234/281/248 233/278/248 218/269/248
f 227/255/249 242/282/249 241/280/249 226/254/249
f 220/257/250 235/283/250 234/281/250 219/256/250
f 228/258/251 243/284/251 242/282/251 227/255/251
f 221/259/252 236/285/252 235/283/252 220/257/252
f 229/260/253 244/286/253 243/284/253 228/258/253
f 222/261/254 237/287/254 236/285/254 221/259/254
f 230/262/255 245/271/255 244/286/255 229/260/255
f 223/263/256 238/273/256 237/287/256 222/261/256
f 235/283/257 250/289/257 249/288/257 234/281/257
f 243/284/258 258/291/258 257/290/258 242/282/258
f 236/285/259 251/292/259 250/289/259 235/283/259
f 244/286/260 259/293/260 258/291/260 243/284/260
f 237/287/261 252/294/261 251/292/261 236/285/261
f 245/271/262 260/295/262 259/293/262 244/286/262
f 238/273/263 253/296/263 252/294/263 237/287/263
f 246/272/264 261/297/264 260/295/264 245/271/264
f 239/274/265 254/298/265 253/296/265 238/273/265
f 247/275/266 262/299/266 261/297/266 246/272/266
f 240/276/267 255/300/267 254/298/267 239/274/267
f 233/278/268 248/302/268 82/301/268
f 308/303/269 262/299/269 247/275/269
f 241/280/270 256/304/270 255/300/270 240/276/270
f 234/281/271 249/288/271 248/302/271 233/278/271
f 242/282/272 257/290/272 256/304/272 241/280/272
f 254/298/273 269/306/273 268/305/273 253/296/273
f 262/299/274 277/308/274 276/307/274 261/297/274
f 255/300/275 270/309/275 269/306/275 254/298/275
f 248/302/276 263/311/276 82/310/276
f 308/312/277 277/308/277 262/299/277
f 256/304/278 271/313/278 270/309/278 255/300/278
f 249/288/279 264/314/279 263/311/279 248/302/279
f 257/290/280 272/315/280 271/313/280 256/304/280
f 250/289/281 265/316/281 264/314/281 249/288/281
f 258/291/282 273/317/282 272/315/282 257/290/282
f 251/292/283 266/318/283 265/316/283 250/289/283
f 259/293/284 274/319/284 273/317/284 258/291/284
f 252/294/285 267/320/285 266/318/285 251/292/285
f 260/295/286 275/321/286 274/319/286 259/293/286
f 253/296/287 268/305/287 267/320/287 252/294/287
f 261/297/288 276/307/288 275/321/288 260/295/288
f 273/317/289 288/323/289 287/322/289 272/315/289
f 266/318/290 281/325/290 280/324/290 265/316/290
f 274/319/291 289/326/291 288/323/291 273/317/291
f 267/320/292 282/327/292 281/325/292 266/318/292
f 275/321/293 290/328/293 289/326/293 274/319/293
f 268/305/294 283/329/294 282/327/294 267/320/294
f 276/307/295 291/330/295 290/328/295 275/321/295
f 269/306/296 284/331/296 283/329/296 268/305/296
f 277/308/297 292/332/297 291/330/297 276/307/297
f 270/309/298 285/333/298 284/331/298 269/306/298
f 263/311/299 278/335/299 82/334/299
f 308/336/300 292/332/300 277/308/300
f 271/313/301 286/337/301 285/333/301 270/309/301
f 264/314/302 279/338/302 278/335/302 263/311/302
f 272/315/303 287/322/303 286/337/303 271/313/303
f 265/316/304 280/324/304 279/338/304 264/314/304
f 292/332/305 307/340/305 306/339/305 291/330/305
f 285/333/306 300/342/306 299/341/306 284/331/306
f 278/335/307 293/344/307 82/343/307
f 308/345/308 307/340/308 292/332/308
f 286/337/309 301/346/309 300/342/309 285/333/309
f 279/338/310 294/347/310 293/344/310 278/335/310
f 287/322/311 302/348/311 301/346/311 286/337/311
f 280/324/312 295/349/312 294/347/312 279/338/312
f 288/323/313 303/350/313 302/348/313 287/322/313
f 281/325/314 296/351/314 295/349/314 280/324/314
f 289/326/315 304/352/315 303/350/315 288/323/315
f 282/327/316 297/353/316 296/351/316 281/325/316
f 290/328/317 305/354/317 304/352/317 289/326/317
f 283/329/318 298/355/318 297/353/318 282/327/318
f 291/330/319 306/339/319 305/354/319 290/328/319
f 284/331/320 299/341/320 298/355/320 283/329/320
f 304/352/321 320/357/321 319/356/321 303/350/321
f 297/353/322 313/359/322 312/358/322 296/351/322
f 305/354/323 321/360/323 320/357/323 304/352/323
f 298/355/324 314/361/324 313/359/324 297/353/324
f 306/339/325 322/362/325 321/360/325 305/354/325
f 299/341/326 315/363/326 314/361/326 298/355/326
f 307/340/327 323/364/327 322/362/327 306/339/327
f 300/342/328 316/365/328 315/363/328 299/341/328
f 293/344/329 309/367/329 82/366/329
f 308/368/330 323/364/330 307/340/330
f 301/346/331 317/369/331 316/365/331 300/342/331
f 294/347/332 310/370/332 309/367/332 293/344/332
f 302/348/333 318/371/333 317/369/333 301/346/333
f 295/349/334 311/372/334 310/370/334 294/347/334
f 303/350/335 319/356/335 318/371/335 302/348/335
f 296/351/336 312/358/336 311/372/336 295/349/336
f 309/367/337 324/374/337 82/373/337
f 308/375/338 338/376/338 323/364/338
f 317/369/339 332/378/339 331/377/339 316/365/339
f 310/370/340 325/379/340 324/374/340 309/367/340
f 318/371/341 333/380/341 332/378/341 317/369/341
f 311/372/342 326/381/342 325/379/342 310/370/342
f 319/356/343 334/382/343 333/380/343 318/371/343
f 312/358/344 327/383/344 326/381/344 311/372/344
f 320/357/345 335/384/345 334/382/345 319/356/345
f 313/359/346 328/385/346 327/383/346 312/358/346
f 321/360/347 336/386/347 335/384/347 320/357/347
f 314/361/348 329/387/348 328/385/348 313/359/348
f 322/362/349 337/388/349 336/386/349 321/360/349
f 315/363/350 330/389/350 329/387/350 314/361/350
f 323/364/351 338/376/351 337/388/351 322/362/351
f 316/365/352 331/377/352 330/389/352 315/363/352
f 328/385/353 343/391/353 342/390/353 327/383/353
f 336/386/354 351/393/354 350/392/354 335/384/354
f 329/387/355 344/394/355 343/391/355 328/385/355
f 337/388/356 352/395/356 351/393/356 336/386/356
f 330/389/357 345/396/357 344/394/357 329/387/357
f 338/376/358 353/397/358 352/395/358 337/388/358
f 331/377/359 346/398/359 345/396/359 330/389/359
f 324/374/360 339/400/360 82/399/360
f 308/401/361 353/397/361 338/376/361
f 332/378/362 347/402/362 346/398/362 331/377/362
f 325/379/363 340/403/363 339/400/363 324/374/363
f 333/380/364 348/404/364 347/402/364 332/378/364
f 326/381/365 341/405/365 340/403/365 325/379/365
f 334/382/366 349/406/366 348/404/366 333/380/366
f 327/383/367 342/390/367 341/405/367 326/381/367
f 335/384/368 350/392/368 349/406/368 334/382/368
f 347/402/369 362/408/369 361/407/369 346/398/369
f 340/403/370 355/410/370 354/409/370 339/400/370
f 348/404/371 363/411/371 362/408/371 347/402/371
f 341/405/372 356/412/372 355/410/372 340/403/372
f 349/406/373 364/413/373 363/411/373 348/404/373
f 342/390/374 357/414/374 356/412/374 341/405/374
f 350/392/375 365/415/375 364/413/375 349/406/375
f 343/391/376 358/416/376 357/414/376 342/390/376
f 351/393/377 366/417/377 365/415/377 350/392/377
f 344/394/378 359/418/378 358/416/378 343/391/378
f 352/395/379 367/419/379 366/417/379 351/393/379
f 345/396/380 360/420/380 359/418/380 344/394/380
f 353/397/381 368/421/381 367/419/381 352/395/381
f 346/398/382 361/407/382 360/420/382 345/396/382
f 339/400/383 354/409/383 82/422/383
f 308/423/384 368/421/384 353/397/384
f 366/424/385 381/427/385 380/426/385 365/425/385
f 359/428/386 374/431/386 373/430/386 358/429/386
f 367/432/387 382/433/387 381/427/387 366/424/387
f 360/434/388 375/435/388 374/431/388 359/428/388
f 368/436/389 383/437/389 382/433/389 367/432/389
f 361/438/390 376/439/390 375/435/390 360/434/390
f 354/440/391 369/442/391 82/441/391
f 308/443/392 383/437/392 368/436/392
f 362/444/393 377/445/393 376/439/393 361/438/393
f 355/446/394 370/447/394 369/442/394 354/440/394
f 363/448/395 378/449/395 377/445/395 362/444/395
f 356/450/396 371/451/396 370/447/396 355/446/396
f 364/452/397 379/453/397 378/449/397 363/448/397
f 357/454/398 372/455/398 371/451/398 356/450/398
f 365/425/399 380/426/399 379/453/399 364/452/399
f 358/429/400 373/430/400 372/455/400 357/454/400
f 370/447/401 385/457/401 384/456/401 369/442/401
f 378/449/402 393/459/402 392/458/402 377/445/402
f 371/451/403 386/460/403 385/457/403 370/447/403
f 379/453/404 394/461/404 393/459/404 378/449/404
f 372/455/405 387/462/405 386/460/405 371/451/405
f 380/426/406 395/463/406 394/461/406 379/453/406
f 373/430/407 388/464/407 387/462/407 372/455/407
f 381/427/408 396/465/408 395/463/408 380/426/408
f 374/431/409 389/466/409 388/464/409 373/430/409
f 382/433/410 397/467/410 396/465/410 381/427/410
f 375/435/411 390/468/411 389/466/411 374/431/411
f 383/437/412 398/469/412 397/467/412 382/433/412
f 376/439/413 391/470/413 390/468/413 375/435/413
f 369/442/414 384/456/414 82/471/414
f 308/472/415 398/469/415 383/437/415
f 377/445/416 392/458/416 391/470/416 376/439/416
f 389/466/417 404/474/417 403/473/417 388/464/417
f 397/467/418 412/476/418 411/475/418 396/465/418
f 390/468/419 405/477/419 404/474/419 389/466/419
f 398/469/420 413/478/420 412/476/420 397/467/420
f 391/470/421 406/479/421 405/477/421 390/468/421
f 384/456/422 399/481/422 82/480/422
f 308/482/423 413/478/423 398/469/423
f 392/458/424 407/483/424 406/479/424 391/470/424
f 385/457/425 400/484/425 399/481/425 384/456/425
f 393/459/426 408/485/426 407/483/426 392/458/426
f 386/460/427 401/486/427 400/484/427 385/457/427
f 394/461/428 409/487/428 408/485/428 393/459/428
f 387/462/429 402/488/429 401/486/429 386/460/429
f 395/463/430 410/489/430 409/487/430 394/461/430
f 388/464/431 403/473/431 402/488/431 387/462/431
f 396/465/432 411/475/432 410/489/432 395/463/432
f 408/485/433 423/491/433 422/490/433 407/483/433
f 401/486/434 416/493/434 415/492/434 400/484/434
f 409/487/435 424/494/435 423/491/435 408/485/435
f 402/488/436 417/495/436 416/493/436 401/486/436
f 410/489/437 425/496/437 424/494/437 409/487/437
f 403/473/438 418/497/438 417/495/438 402/488/438
f 411/475/439 426/498/439 425/496/439 410/489/439
f 404/474/440 419/499/440 418/497/440 403/473/440
f 412/476/441 427/500/441 426/498/441 411/475/441
f 405/477/442 420/501/442 419/499/442 404/474/442
f 413/478/443 428/502/443 427/500/443 412/476/443
f 406/479/444 421/503/444 420/501/444 405/477/444
f 399/481/445 414/505/445 82/504/445
f 308/506/446 428/502/446 413/478/446
f 407/483/447 422/490/447 421/503/447 406/479/447
f 400/484/448 415/492/448 414/505/448 399/481/448
f 427/500/449 442/508/449 441/507/449 426/498/449
f 420/501/450 435/510/450 434/509/450 419/499/450
f 428/502/451 443/511/451 442/508/451 427/500/451
f 421/503/452 436/512/452 435/510/452 420/501/452
f 414/505/453 429/514/453 82/513/453
f 308/515/454 443/511/454 428/502/454
f 422/490/455 437/516/455 436/512/455 421/503/455
f 415/492/456 430/517/456 429/514/456 414/505/456
f 423/491/457 438/518/457 437/516/457 422/490/457
f 416/493/458 431/519/458 430/517/458 415/492/458
f 424/494/459 439/520/459 438/518/459 423/491/459
f 417/495/460 432/521/460 431/519/460 416/493/460
f 425/496/461 440/522/461 439/520/461 424/494/461
f 418/497/462 433/523/462 432/521/462 417/495/462
f 426/498/463 441/507/463 440/522/463 425/496/463
f 419/499/464 434/509/464 433/523/464 418/497/464
f 439/520/465 454/525/465 453/524/465 438/518/465
f 432/521/466 447/527/466 446/526/466 431/519/466
f 440/522/467 455/528/467 454/525/467 439/520/467
f 433/523/468 448/529/468 447/527/468 432/521/468
f 441/507/469 456/530/469 455/528/469 440/522/469
f 434/509/470 449/531/470 448/529/470 433/523/470
f 442/508/471 457/532/471 456/530/471 441/507/471
f 435/510/472 450/533/472 449/531/472 434/509/472
f 443/511/473 458/534/473 457/532/473 442/508/473
f 436/512/474 451/535/474 450/533/474 435/510/474
f 429/514/475 444/537/475 82/536/475
f 308/538/476 458/534/476 443/511/476
f 437/516/477 452/539/477 451/535/477 436/512/477
f 430/517/478 445/540/478 444/537/478 429/514/478
f 438/518/479 453/524/479 452/539/479 437/516/479
f 431/519/480 446/526/480 445/540/480 430/517/480
f 458/534/481 473/542/481 472/541/481 457/532/481
f 451/535/482 466/544/482 465/543/482 450/533/482
f 444/537/483 459/546/483 82/545/483
f 308/547/484 473/542/484 458/534/484
f 452/539/485 467/548/485 466/544/485 451/535/485
f 445/540/486 460/549/486 459/546/486 444/537/486
f 453/524/487 468/550/487 467/548/487 452/539/487
f 446/526/488 461/551/488 460/549/488 445/540/488
f 454/525/489 469/552/489 468/550/489 453/524/489
f 447/527/490 462/553/490 461/551/490 446/526/490
f 455/528/491 470/554/491 469/552/491 454/525/491
f 448/529/492 463/555/492 462/553/492 447/527/492
f 456/530/493 471/556/493 470/554/493 455/528/493
f 449/531/494 464/557/494 463/555/494 448/529/494
f 457/532/495 472/541/495 471/556/495 456/530/495
f 450/533/496 465/543/496 464/557/496 449/531/496
f 462/553/497 476/5/497 1/6/497 461/551/497
f 470/554/498 479/9/498 6/1/498 469/552/498
f 463/555/499 2/11/499 476/5/499 462/553/499
f 471/556/500 480/13/500 479/9/500 470/554/500
f 464/557/501 477/15/501 2/11/501 463/555/501
f 472/541/502 481/17/502 480/13/502 471/556/502
f 465/543/503 3/19/503 477/15/503 464/557/503
f 473/542/504 482/21/504 481/17/504 472/541/504
f 466/544/505 4/23/505 3/19/505 465/543/505
f 459/546/506 474/25/506 82/558/506
f 308/559/507 482/21/507 473/542/507
f 467/548/508 5/29/508 4/23/508 466/544/508
f 460/549/509 475/31/509 474/25/509 459/546/509
f 468/550/510 478/2/510 5/29/510 467/548/510
f 461/551/511 1/6/511 475/31/511 460/549/511
f 469/552/512 6/1/512 478/2/512 468/550/512
f 483/438/513 485/562/513 486/561/513 484/560/513
f 485/562/514 487/564/514 488/563/514 486/561/514
f 487/564/515 489/566/515 490/565/515 488/563/515
f 489/566/516 491/568/516 492/567/516 490/565/516
f 491/568/517 493/570/517 494/569/517 492/567/517
f 493/570/518 495/572/518 496/571/518 494/569/518
f 495/572/519 497/574/519 498/573/519 496/571/519
f 497/574/520 499/23/520 500/575/520 498/573/520
f 499/23/521 501/24/521 502/576/521 500/575/521
f 501/24/522 503/46/522 504/577/522 502/576/522
f 503/46/523 505/55/523 506/578/523 504/577/523
f 505/55/524 507/79/524 508/579/524 506/578/524
f 507/79/525 509/88/525 510/580/525 508/579/525
f 509/88/526 511/112/526 512/581/526 510/580/526
f 511/112/527 513/121/527 514/582/527 512/581/527
f 513/121/528 515/584/528 516/583/528 514/582/528
f 515/584/529 517/586/529 518/585/529 516/583/529
f 517/586/530 519/588/530 520/587/530 518/585/530
f 519/588/531 521/590/531 522/589/531 520/587/531
f 521/590/532 523/592/532 524/591/532 522/589/532
f 523/592/533 525/594/533 526/593/533 524/591/533
f 525/594/534 527/596/534 528/595/534 526/593/534
f 527/596/535 529/598/535 530/597/535 528/595/535
f 529/598/536 531/600/536 532/599/536 530/597/536
f 531/600/537 533/602/537 534/601/537 532/599/537
f 533/602/538 535/604/538 536/603/538 534/601/538
f 535/604/539 537/606/539 538/605/539 536/603/539
f 537/606/540 539/608/540 540/607/540 538/605/540
f 539/608/541 541/610/541 542/609/541 540/607/541
f 541/610/542 543/612/542 544/611/542 542/609/542
f 486/613/543 488/644/543 490/643/543 492/642/543 494/641/543 496/640/543 498/639/543 500/638/543 502/637/543 504/636/543 506/635/543 508/634/543 510/633/543 512/632/543 514/631/543 516/630/543 518/629/543 520/628/543 522/627/543 524/626/543 526/625/543 528/624/543 530/623/543 532/622/543 534/621/543 536/620/543 538/619/543 540/618/543 542/617/543 544/616/543 546/615/543 484/614/543
f 543/612/544 545/646/544 546/645/544 544/611/544
f 545/646/545 483/407/545 484/647/545 546/645/545
f 483/648/546 545/679/546 543/678/546 541/677/546 539/676/546 537/675/546 535/674/546 533/673/546 531/672/546 529/671/546 527/670/546 525/669/546 523/668/546 521/667/546 519/666/546 517/665/546 515/664/546 513/663/546 511/662/546 509/661/546 507/660/546 505/659/546 503/658/546 501/657/546 499/656/546 497/655/546 495/654/546 493/653/546 491/652/546 489/651/546 487/650/546 485/649/546
o Cube.002
v 23.415371 -1.584628 1.584628
v 23.415371 1.584628 1.584628
v 23.415371 -1.584628 -1.584628
v 23.415371 1.584628 -1.584628
v 26.584629 -1.584628 1.584628
v 26.584629 1.584628 1.584628
v 26.584629 -1.584628 -1.584628
v 26.584629 1.584628 -1.584628
vn -1.0000 -0.0000 -0.0000
vn -0.0000 -0.0000 -1.0000
vn 1.0000 -0.0000 -0.0000
vn -0.0000 -0.0000 1.0000
vn -0.0000 -1.0000 -0.0000
vn -0.0000 1.0000 -0.0000
vt 0.375000 0.000000
vt 0.625000 0.000000
vt 0.625000 0.250000
vt 0.375000 0.250000
vt 0.625000 0.500000
vt 0.375000 0.500000
vt 0.625000 0.750000
vt 0.375000 0.750000
vt 0.625000 1.000000
vt 0.375000 1.000000
vt 0.125000 0.500000
vt 0.125000 0.750000
vt 0.875000 0.500000
vt 0.875000 0.750000
s 0
f 547/680/547 548/681/547 550/682/547 549/683/547
f 549/683/548 550/682/548 554/684/548 553/685/548
f 553/685/549 554/684/549 552/686/549 551/687/549
f 551/687/550 552/686/550 548/688/550 547/689/550
f 549/690/551 553/685/551 551/687/551 547/691/551
f 554/684/552 550/692/552 548/693/552 552/686/552
