# Blender 4.5.3 LTS
# www.blender.org
mtllib Achsen Gizmo Rotate Y.mtl
o Cylinder.001
v 0.000000 -0.217841 -25.363148
v 0.000000 0.217841 -25.363148
v 4.948105 -0.217841 -24.875803
v 4.948105 0.217841 -24.875803
v 9.706059 -0.217841 -23.432493
v 9.706059 0.217841 -23.432493
v 14.091011 -0.217841 -21.088686
v 14.091011 0.217841 -21.088686
v 17.934456 -0.217841 -17.934456
v 17.934456 0.217841 -17.934456
v 21.088686 -0.217841 -14.091011
v 21.088686 0.217841 -14.091011
v 23.432493 -0.217841 -9.706059
v 23.432493 0.217841 -9.706059
v 24.875803 -0.217841 -4.948105
v 24.875803 0.217841 -4.948105
v 25.363148 -0.217841 0.000000
v 25.363148 0.217841 0.000000
v -25.363148 -0.217841 0.000000
v -25.363148 0.217841 0.000000
v -24.875803 -0.217841 -4.948105
v -24.875803 0.217841 -4.948105
v -23.432493 -0.217841 -9.706059
v -23.432493 0.217841 -9.706059
v -21.088686 -0.217841 -14.091011
v -21.088686 0.217841 -14.091011
v -17.934456 -0.217841 -17.934456
v -17.934456 0.217841 -17.934456
v -14.091011 -0.217841 -21.088686
v -14.091011 0.217841 -21.088686
v -9.706059 -0.217841 -23.432493
v -9.706059 0.217841 -23.432493
v -4.948105 -0.217841 -24.875803
v -4.948105 0.217841 -24.875803
v 0.000000 -0.217841 -28.214123
v 5.504303 -0.217841 -27.671997
v 5.504303 0.217841 -27.671997
v 0.000000 0.217841 -28.214123
v 10.797078 -0.217841 -26.066450
v 10.797078 0.217841 -26.066450
v 15.674928 -0.217841 -23.459187
v 15.674928 0.217841 -23.459187
v 19.950397 -0.217841 -19.950397
v 19.950397 0.217841 -19.950397
v 23.459187 -0.217841 -15.674928
v 23.459187 0.217841 -15.674928
v 26.066450 -0.217841 -10.797078
v 26.066450 0.217841 -10.797078
v 27.671997 -0.217841 -5.504303
v 27.671997 0.217841 -5.504303
v 28.214123 -0.217841 0.000000
v 28.214123 0.217841 0.000000
v -28.214123 -0.217841 0.000000
v -28.214123 0.217841 0.000000
v -27.671997 -0.217841 -5.504303
v -27.671997 0.217841 -5.504303
v -26.066450 -0.217841 -10.797078
v -26.066450 0.217841 -10.797078
v -23.459187 -0.217841 -15.674928
v -23.459187 0.217841 -15.674928
v -19.950397 -0.217841 -19.950397
v -19.950397 0.217841 -19.950397
v -15.674928 -0.217841 -23.459187
v -15.674928 0.217841 -23.459187
v -10.797078 -0.217841 -26.066450
v -10.797078 0.217841 -26.066450
v -5.504303 -0.217841 -27.671997
v -5.504303 0.217841 -27.671997
vn 0.0980 -0.0000 -0.9952
vn 0.2903 -0.0000 -0.9569
vn 0.4714 -0.0000 -0.8819
vn 0.6344 -0.0000 -0.7730
vn 0.7730 -0.0000 -0.6344
vn 0.8819 -0.0000 -0.4714
vn 0.9569 -0.0000 -0.2903
vn 0.9952 -0.0000 -0.0980
vn -0.9952 -0.0000 -0.0980
vn -0.9569 -0.0000 -0.2903
vn -0.8819 -0.0000 -0.4714
vn -0.7730 -0.0000 -0.6344
vn -0.6344 -0.0000 -0.7730
vn -0.4714 -0.0000 -0.8819
vn 0.2903 -0.0000 0.9569
vn -0.2903 -0.0000 -0.9569
vn -0.0980 -0.0000 -0.9952
vn 0.0980 -0.0000 0.9952
vn -0.0000 -1.0000 -0.0000
vn -0.0000 1.0000 -0.0000
vn 0.4714 -0.0000 0.8819
vn 0.6344 -0.0000 0.7730
vn 0.7730 -0.0000 0.6344
vn 0.8819 -0.0000 0.4714
vn 0.9569 -0.0000 0.2903
vn 0.9952 -0.0000 0.0980
vn -0.9952 -0.0000 0.0980
vn -0.9569 -0.0000 0.2903
vn -0.8819 -0.0000 0.4714
vn -0.7730 -0.0000 0.6344
vn -0.6344 -0.0000 0.7730
vn -0.4714 -0.0000 0.8819
vn -0.2903 -0.0000 0.9569
vn -0.0980 -0.0000 0.9952
vt 1.000000 0.500000
vt 1.000000 1.000000
vt 0.968750 1.000000
vt 0.968750 0.500000
vt 0.937500 1.000000
vt 0.937500 0.500000
vt 0.906250 1.000000
vt 0.906250 0.500000
vt 0.875000 1.000000
vt 0.875000 0.500000
vt 0.843750 1.000000
vt 0.843750 0.500000
vt 0.812500 1.000000
vt 0.812500 0.500000
vt 0.781250 1.000000
vt 0.781250 0.500000
vt 0.750000 1.000000
vt 0.750000 0.500000
vt 0.250000 0.500000
vt 0.250000 1.000000
vt 0.218750 1.000000
vt 0.218750 0.500000
vt 0.187500 1.000000
vt 0.187500 0.500000
vt 0.156250 1.000000
vt 0.156250 0.500000
vt 0.125000 1.000000
vt 0.125000 0.500000
vt 0.093750 1.000000
vt 0.093750 0.500000
vt 0.062500 1.000000
vt 0.062500 0.500000
vt 0.207910 0.461603
vt 0.167437 0.449326
vt 0.667437 0.449326
vt 0.707910 0.461603
vt 0.031250 1.000000
vt 0.031250 0.500000
vt 0.000000 1.000000
vt 0.000000 0.500000
vt 0.250000 0.465749
vt 0.750000 0.465749
vt 0.792091 0.461603
vt 0.750000 0.490000
vt 0.796822 0.485388
vt 0.292090 0.461603
vt 0.296822 0.485388
vt 0.250000 0.490000
vt 0.832563 0.449326
vt 0.841844 0.471731
vt 0.332563 0.449326
vt 0.341844 0.471731
vt 0.869864 0.429388
vt 0.883337 0.449553
vt 0.369863 0.429388
vt 0.383337 0.449553
vt 0.902557 0.402557
vt 0.919706 0.419706
vt 0.402557 0.402557
vt 0.419706 0.419706
vt 0.929388 0.369863
vt 0.949553 0.383337
vt 0.429388 0.369863
vt 0.449553 0.383337
vt 0.949326 0.332563
vt 0.971731 0.341844
vt 0.449326 0.332563
vt 0.471731 0.341844
vt 0.961603 0.292090
vt 0.985388 0.296822
vt 0.461603 0.292090
vt 0.485388 0.296822
vt 0.965749 0.250000
vt 0.990000 0.250000
vt 0.465749 0.250000
vt 0.490000 0.250000
vt 0.538397 0.292090
vt 0.534252 0.250000
vt 0.510000 0.250000
vt 0.514612 0.296822
vt 0.034251 0.250000
vt 0.038397 0.292090
vt 0.014612 0.296822
vt 0.010000 0.250000
vt 0.550674 0.332563
vt 0.528269 0.341844
vt 0.050674 0.332563
vt 0.028269 0.341844
vt 0.570612 0.369863
vt 0.550447 0.383337
vt 0.070612 0.369863
vt 0.050447 0.383337
vt 0.597443 0.402557
vt 0.580294 0.419706
vt 0.097443 0.402557
vt 0.080294 0.419706
vt 0.630137 0.429388
vt 0.616663 0.449553
vt 0.130137 0.429388
vt 0.116663 0.449553
vt 0.658156 0.471731
vt 0.158156 0.471731
vt 0.703178 0.485388
vt 0.203178 0.485388
s 0
f 35/1/1 38/2/1 37/3/1 36/4/1
f 36/4/2 37/3/2 40/5/2 39/6/2
f 39/6/3 40/5/3 42/7/3 41/8/3
f 41/8/4 42/7/4 44/9/4 43/10/4
f 43/10/5 44/9/5 46/11/5 45/12/5
f 45/12/6 46/11/6 48/13/6 47/14/6
f 47/14/7 48/13/7 50/15/7 49/16/7
f 49/16/8 50/15/8 52/17/8 51/18/8
f 53/19/9 54/20/9 56/21/9 55/22/9
f 55/22/10 56/21/10 58/23/10 57/24/10
f 57/24/11 58/23/11 60/25/11 59/26/11
f 59/26/12 60/25/12 62/27/12 61/28/12
f 61/28/13 62/27/13 64/29/13 63/30/13
f 63/30/14 64/29/14 66/31/14 65/32/14
f 34/33/15 32/34/15 31/35/15 33/36/15
f 65/32/16 66/31/16 68/37/16 67/38/16
f 67/38/17 68/37/17 38/39/17 35/40/17
f 2/41/18 34/33/18 33/36/18 1/42/18
f 3/43/19 1/42/19 35/44/19 36/45/19
f 2/41/20 4/46/20 37/47/20 38/48/20
f 5/49/19 3/43/19 36/45/19 39/50/19
f 4/46/20 6/51/20 40/52/20 37/47/20
f 7/53/19 5/49/19 39/50/19 41/54/19
f 6/51/20 8/55/20 42/56/20 40/52/20
f 9/57/19 7/53/19 41/54/19 43/58/19
f 8/55/20 10/59/20 44/60/20 42/56/20
f 11/61/19 9/57/19 43/58/19 45/62/19
f 10/59/20 12/63/20 46/64/20 44/60/20
f 13/65/19 11/61/19 45/62/19 47/66/19
f 12/63/20 14/67/20 48/68/20 46/64/20
f 15/69/19 13/65/19 47/66/19 49/70/19
f 14/67/20 16/71/20 50/72/20 48/68/20
f 17/73/19 15/69/19 49/70/19 51/74/19
f 16/71/20 18/75/20 52/76/20 50/72/20
f 21/77/19 19/78/19 53/79/19 55/80/19
f 20/81/20 22/82/20 56/83/20 54/84/20
f 23/85/19 21/77/19 55/80/19 57/86/19
f 22/82/20 24/87/20 58/88/20 56/83/20
f 25/89/19 23/85/19 57/86/19 59/90/19
f 24/87/20 26/91/20 60/92/20 58/88/20
f 27/93/19 25/89/19 59/90/19 61/94/19
f 26/91/20 28/95/20 62/96/20 60/92/20
f 29/97/19 27/93/19 61/94/19 63/98/19
f 28/95/20 30/99/20 64/100/20 62/96/20
f 31/35/19 29/97/19 63/98/19 65/101/19
f 30/99/20 32/34/20 66/102/20 64/100/20
f 33/36/19 31/35/19 65/101/19 67/103/19
f 32/34/20 34/33/20 68/104/20 66/102/20
f 1/42/19 33/36/19 67/103/19 35/44/19
f 34/33/20 2/41/20 38/48/20 68/104/20
f 32/34/21 30/99/21 29/97/21 31/35/21
f 30/99/22 28/95/22 27/93/22 29/97/22
f 28/95/23 26/91/23 25/89/23 27/93/23
f 26/91/24 24/87/24 23/85/24 25/89/24
f 24/87/25 22/82/25 21/77/25 23/85/25
f 22/82/26 20/81/26 19/78/26 21/77/26
f 18/75/27 16/71/27 15/69/27 17/73/27
f 16/71/28 14/67/28 13/65/28 15/69/28
f 14/67/29 12/63/29 11/61/29 13/65/29
f 12/63/30 10/59/30 9/57/30 11/61/30
f 10/59/31 8/55/31 7/53/31 9/57/31
f 8/55/32 6/51/32 5/49/32 7/53/32
f 6/51/33 4/46/33 3/43/33 5/49/33
f 4/46/34 2/41/34 1/42/34 3/43/34
