# Blender 4.5.3 LTS
# www.blender.org
mtllib Gizmo_Translate_Z.mtl
o Cylinder.002
v 0.000000 -0.702311 1.187653
v 0.000000 -0.702310 25.358212
v 0.137014 -0.688816 1.187653
v 0.137014 -0.688816 25.358212
v 0.268763 -0.648851 1.187653
v 0.268763 -0.648850 25.358212
v 0.390183 -0.583950 1.187653
v 0.390183 -0.583950 25.358212
v 0.496609 -0.496609 1.187653
v 0.496609 -0.496608 25.358212
v 0.583950 -0.390183 1.187653
v 0.583950 -0.390183 25.358212
v 0.648850 -0.268763 1.187653
v 0.648850 -0.268762 25.358212
v 0.688816 -0.137014 1.187653
v 0.688816 -0.137014 25.358212
v 0.702311 -0.000000 1.187653
v 0.702311 0.000000 25.358212
v 0.688816 0.137014 1.187653
v 0.688816 0.137014 25.358212
v 0.648850 0.268762 1.187653
v 0.648850 0.268763 25.358212
v 0.583950 0.390183 1.187653
v 0.583950 0.390183 25.358212
v 0.496609 0.496608 1.187653
v 0.496609 0.496609 25.358212
v 0.390183 0.583950 1.187653
v 0.390183 0.583950 25.358212
v 0.268763 0.648850 1.187653
v 0.268763 0.648851 25.358212
v 0.137014 0.688816 1.187653
v 0.137014 0.688816 25.358212
v 0.000000 0.702310 1.187653
v 0.000000 0.702311 25.358212
v -0.137014 0.688816 1.187653
v -0.137014 0.688816 25.358212
v -0.268763 0.648850 1.187653
v -0.268763 0.648851 25.358212
v -0.390183 0.583950 1.187653
v -0.390183 0.583950 25.358212
v -0.496609 0.496608 1.187653
v -0.496609 0.496609 25.358212
v -0.583950 0.390183 1.187653
v -0.583950 0.390183 25.358212
v -0.648850 0.268762 1.187653
v -0.648850 0.268763 25.358212
v -0.688816 0.137014 1.187653
v -0.688816 0.137014 25.358212
v -0.702311 -0.000000 1.187653
v -0.702311 0.000000 25.358212
v -0.688816 -0.137014 1.187653
v -0.688816 -0.137014 25.358212
v -0.648850 -0.268763 1.187653
v -0.648850 -0.268762 25.358212
v -0.583950 -0.390183 1.187653
v -0.583950 -0.390183 25.358212
v -0.496609 -0.496609 1.187653
v -0.496609 -0.496608 25.358212
v -0.390183 -0.583950 1.187653
v -0.390183 -0.583950 25.358212
v -0.268763 -0.648851 1.187653
v -0.268763 -0.648850 25.358212
v -0.137014 -0.688816 1.187653
v -0.137014 -0.688816 25.358212
v -0.004794 -1.511640 25.237917
v 0.289140 -1.482712 25.237917
v 0.571778 -1.397037 25.237917
v 0.832258 -1.257909 25.237917
v 1.060571 -1.070675 25.237917
v 1.247943 -0.842528 25.237917
v 1.387172 -0.582238 25.237917
v 1.472910 -0.299807 25.237917
v 1.501860 -0.006088 25.237917
v 1.472910 0.287630 25.237917
v 1.387172 0.570061 25.237917
v 1.247943 0.830351 25.237917
v 1.060571 1.058498 25.237917
v 0.832258 1.245732 25.237917
v 0.571778 1.384860 25.237917
v 0.289140 1.470535 25.237917
v -0.004794 1.499464 25.237917
v -0.298727 1.470535 25.237917
v -0.581365 1.384860 25.237917
v -0.841846 1.245732 25.237917
v -1.070159 1.058498 25.237917
v -1.257530 0.830351 25.237917
v -1.396760 0.570061 25.237917
v -1.482497 0.287630 25.237917
v -1.511447 -0.006088 25.237917
v -1.482497 -0.299807 25.237917
v -1.396760 -0.582238 25.237917
v -1.257530 -0.842528 25.237917
v -1.070159 -1.070675 25.237917
v -0.841846 -1.257909 25.237917
v -0.581365 -1.397037 25.237917
v -0.298727 -1.482712 25.237917
v -0.004794 -0.006088 30.370777
vn 0.0980 -0.9952 -0.0000
vn 0.2903 -0.9569 -0.0000
vn 0.4714 -0.8819 -0.0000
vn 0.6344 -0.7730 -0.0000
vn 0.7730 -0.6344 -0.0000
vn 0.8819 -0.4714 -0.0000
vn 0.9569 -0.2903 -0.0000
vn 0.9952 -0.0980 -0.0000
vn 0.9952 0.0980 -0.0000
vn 0.9569 0.2903 -0.0000
vn 0.8819 0.4714 -0.0000
vn 0.7730 0.6344 -0.0000
vn 0.6344 0.7730 -0.0000
vn 0.4714 0.8819 -0.0000
vn 0.2903 0.9569 -0.0000
vn 0.0980 0.9952 -0.0000
vn -0.0980 0.9952 -0.0000
vn -0.2903 0.9569 -0.0000
vn -0.4714 0.8819 -0.0000
vn -0.6344 0.7730 -0.0000
vn -0.7730 0.6344 -0.0000
vn -0.8819 0.4714 -0.0000
vn -0.9569 0.2903 -0.0000
vn -0.9952 0.0980 -0.0000
vn -0.9952 -0.0980 -0.0000
vn -0.9569 -0.2903 -0.0000
vn -0.8819 -0.4714 -0.0000
vn -0.7730 -0.6344 -0.0000
vn -0.6344 -0.7730 -0.0000
vn -0.4714 -0.8819 -0.0000
vn -0.0000 -0.0000 1.0000
vn -0.2903 -0.9569 -0.0000
vn -0.0980 -0.9952 -0.0000
vn -0.0000 -0.0000 -1.0000
vn 0.0940 -0.9553 0.2802
vn 0.2785 -0.9187 0.2802
vn 0.4522 -0.8467 0.2803
vn 0.6087 -0.7422 0.2803
vn 0.7418 -0.6092 0.2803
vn 0.8464 -0.4527 0.2804
vn 0.9185 -0.2788 0.2804
vn 0.9553 -0.0942 0.2804
vn 0.9553 0.0942 0.2804
vn 0.9185 0.2788 0.2804
vn 0.8464 0.4527 0.2804
vn 0.7418 0.6092 0.2803
vn 0.6087 0.7422 0.2803
vn 0.4522 0.8467 0.2803
vn 0.2785 0.9187 0.2802
vn 0.0940 0.9553 0.2802
vn -0.0940 0.9553 0.2802
vn -0.2785 0.9187 0.2802
vn -0.4522 0.8467 0.2803
vn -0.6087 0.7422 0.2803
vn -0.7418 0.6092 0.2803
vn -0.8464 0.4527 0.2804
vn -0.9185 0.2788 0.2804
vn -0.9553 0.0942 0.2804
vn -0.9553 -0.0942 0.2804
vn -0.9185 -0.2788 0.2804
vn -0.8464 -0.4527 0.2804
vn -0.7418 -0.6092 0.2803
vn -0.6087 -0.7422 0.2803
vn -0.4522 -0.8467 0.2803
vn -0.2785 -0.9187 0.2802
vn -0.0940 -0.9553 0.2802
vt 1.000000 0.500000
vt 1.000000 1.000000
vt 0.968750 1.000000
vt 0.968750 0.500000
vt 0.937500 1.000000
vt 0.937500 0.500000
vt 0.906250 1.000000
vt 0.906250 0.500000
vt 0.875000 1.000000
vt 0.875000 0.500000
vt 0.843750 1.000000
vt 0.843750 0.500000
vt 0.812500 1.000000
vt 0.812500 0.500000
vt 0.781250 1.000000
vt 0.781250 0.500000
vt 0.750000 1.000000
vt 0.750000 0.500000
vt 0.718750 1.000000
vt 0.718750 0.500000
vt 0.687500 1.000000
vt 0.687500 0.500000
vt 0.656250 1.000000
vt 0.656250 0.500000
vt 0.625000 1.000000
vt 0.625000 0.500000
vt 0.593750 1.000000
vt 0.593750 0.500000
vt 0.562500 1.000000
vt 0.562500 0.500000
vt 0.531250 1.000000
vt 0.531250 0.500000
vt 0.500000 1.000000
vt 0.500000 0.500000
vt 0.468750 1.000000
vt 0.468750 0.500000
vt 0.437500 1.000000
vt 0.437500 0.500000
vt 0.406250 1.000000
vt 0.406250 0.500000
vt 0.375000 1.000000
vt 0.375000 0.500000
vt 0.343750 1.000000
vt 0.343750 0.500000
vt 0.312500 1.000000
vt 0.312500 0.500000
vt 0.281250 1.000000
vt 0.281250 0.500000
vt 0.250000 1.000000
vt 0.250000 0.500000
vt 0.218750 1.000000
vt 0.218750 0.500000
vt 0.187500 1.000000
vt 0.187500 0.500000
vt 0.156250 1.000000
vt 0.156250 0.500000
vt 0.125000 1.000000
vt 0.125000 0.500000
vt 0.093750 1.000000
vt 0.093750 0.500000
vt 0.062500 1.000000
vt 0.062500 0.500000
vt 0.296822 0.485388
vt 0.250000 0.490000
vt 0.203178 0.485388
vt 0.158156 0.471731
vt 0.116663 0.449553
vt 0.080294 0.419706
vt 0.050447 0.383337
vt 0.028269 0.341844
vt 0.014612 0.296822
vt 0.010000 0.250000
vt 0.014612 0.203178
vt 0.028269 0.158156
vt 0.050447 0.116663
vt 0.080294 0.080294
vt 0.116663 0.050447
vt 0.158156 0.028269
vt 0.203178 0.014612
vt 0.250000 0.010000
vt 0.296822 0.014612
vt 0.341844 0.028269
vt 0.383337 0.050447
vt 0.419706 0.080294
vt 0.449553 0.116663
vt 0.471731 0.158156
vt 0.485388 0.203178
vt 0.490000 0.250000
vt 0.485388 0.296822
vt 0.471731 0.341844
vt 0.449553 0.383337
vt 0.419706 0.419706
vt 0.383337 0.449553
vt 0.341844 0.471731
vt 0.031250 1.000000
vt 0.031250 0.500000
vt 0.000000 1.000000
vt 0.000000 0.500000
vt 0.750000 0.490000
vt 0.796822 0.485388
vt 0.841844 0.471731
vt 0.883337 0.449553
vt 0.919706 0.419706
vt 0.949553 0.383337
vt 0.971731 0.341844
vt 0.985388 0.296822
vt 0.990000 0.250000
vt 0.985388 0.203178
vt 0.971731 0.158156
vt 0.949553 0.116663
vt 0.919706 0.080294
vt 0.883337 0.050447
vt 0.841844 0.028269
vt 0.796822 0.014612
vt 0.750000 0.010000
vt 0.703178 0.014612
vt 0.658156 0.028269
vt 0.616663 0.050447
vt 0.580294 0.080294
vt 0.550447 0.116663
vt 0.528269 0.158156
vt 0.514612 0.203178
vt 0.510000 0.250000
vt 0.514612 0.296822
vt 0.528269 0.341844
vt 0.550447 0.383337
vt 0.580294 0.419706
vt 0.616663 0.449553
vt 0.658156 0.471731
vt 0.703178 0.485388
vt 0.250000 0.490000
vt 0.250000 0.250000
vt 0.296822 0.485388
vt 0.341844 0.471731
vt 0.383337 0.449553
vt 0.419706 0.419706
vt 0.449553 0.383337
vt 0.471731 0.341844
vt 0.485388 0.296822
vt 0.490000 0.250000
vt 0.485388 0.203178
vt 0.471731 0.158156
vt 0.449553 0.116663
vt 0.419706 0.080294
vt 0.383337 0.050447
vt 0.341844 0.028269
vt 0.296822 0.014612
vt 0.250000 0.010000
vt 0.203178 0.014612
vt 0.158156 0.028269
vt 0.116663 0.050447
vt 0.080294 0.080294
vt 0.050447 0.116663
vt 0.028269 0.158156
vt 0.014612 0.203178
vt 0.010000 0.250000
vt 0.014612 0.296822
vt 0.028269 0.341844
vt 0.050447 0.383337
vt 0.080294 0.419706
vt 0.116663 0.449553
vt 0.158156 0.471731
vt 0.750000 0.490000
vt 0.796822 0.485388
vt 0.841844 0.471731
vt 0.883337 0.449553
vt 0.919706 0.419706
vt 0.949553 0.383337
vt 0.985388 0.296822
vt 0.990000 0.250000
vt 0.985388 0.203178
vt 0.971731 0.158156
vt 0.949553 0.116663
vt 0.919706 0.080294
vt 0.883337 0.050447
vt 0.841844 0.028269
vt 0.796822 0.014612
vt 0.750000 0.010000
vt 0.703178 0.014612
vt 0.658156 0.028269
vt 0.616663 0.050447
vt 0.580294 0.080294
vt 0.550447 0.116663
vt 0.528269 0.158156
vt 0.514612 0.203178
vt 0.510000 0.250000
vt 0.514612 0.296822
vt 0.550447 0.383337
vt 0.580294 0.419706
vt 0.616663 0.449553
vt 0.658156 0.471731
vt 0.703178 0.485388
vt 0.203178 0.485388
s 0
f 1/1/1 3/4/1 4/3/1 2/2/1
f 3/4/2 5/6/2 6/5/2 4/3/2
f 5/6/3 7/8/3 8/7/3 6/5/3
f 7/8/4 9/10/4 10/9/4 8/7/4
f 9/10/5 11/12/5 12/11/5 10/9/5
f 11/12/6 13/14/6 14/13/6 12/11/6
f 13/14/7 15/16/7 16/15/7 14/13/7
f 15/16/8 17/18/8 18/17/8 16/15/8
f 17/18/9 19/20/9 20/19/9 18/17/9
f 19/20/10 21/22/10 22/21/10 20/19/10
f 21/22/11 23/24/11 24/23/11 22/21/11
f 23/24/12 25/26/12 26/25/12 24/23/12
f 25/26/13 27/28/13 28/27/13 26/25/13
f 27/28/14 29/30/14 30/29/14 28/27/14
f 29/30/15 31/32/15 32/31/15 30/29/15
f 31/32/16 33/34/16 34/33/16 32/31/16
f 33/34/17 35/36/17 36/35/17 34/33/17
f 35/36/18 37/38/18 38/37/18 36/35/18
f 37/38/19 39/40/19 40/39/19 38/37/19
f 39/40/20 41/42/20 42/41/20 40/39/20
f 41/42/21 43/44/21 44/43/21 42/41/21
f 43/44/22 45/46/22 46/45/22 44/43/22
f 45/46/23 47/48/23 48/47/23 46/45/23
f 47/48/24 49/50/24 50/49/24 48/47/24
f 49/50/25 51/52/25 52/51/25 50/49/25
f 51/52/26 53/54/26 54/53/26 52/51/26
f 53/54/27 55/56/27 56/55/27 54/53/27
f 55/56/28 57/58/28 58/57/28 56/55/28
f 57/58/29 59/60/29 60/59/29 58/57/29
f 59/60/30 61/62/30 62/61/30 60/59/30
f 4/63/31 6/94/31 8/93/31 10/92/31 12/91/31 14/90/31 16/89/31 18/88/31 20/87/31 22/86/31 24/85/31 26/84/31 28/83/31 30/82/31 32/81/31 34/80/31 36/79/31 38/78/31 40/77/31 42/76/31 44/75/31 46/74/31 48/73/31 50/72/31 52/71/31 54/70/31 56/69/31 58/68/31 60/67/31 62/66/31 64/65/31 2/64/31
f 61/62/32 63/96/32 64/95/32 62/61/32
f 63/96/33 1/98/33 2/97/33 64/95/33
f 1/99/34 63/130/34 61/129/34 59/128/34 57/127/34 55/126/34 53/125/34 51/124/34 49/123/34 47/122/34 45/121/34 43/120/34 41/119/34 39/118/34 37/117/34 35/116/34 33/115/34 31/114/34 29/113/34 27/112/34 25/111/34 23/110/34 21/109/34 19/108/34 17/107/34 15/106/34 13/105/34 11/104/34 9/103/34 7/102/34 5/101/34 3/100/34
f 65/131/35 66/133/35 97/132/35
f 66/133/36 67/134/36 97/132/36
f 67/134/37 68/135/37 97/132/37
f 68/135/38 69/136/38 97/132/38
f 69/136/39 70/137/39 97/132/39
f 70/137/40 71/138/40 97/132/40
f 71/138/41 72/139/41 97/132/41
f 72/139/42 73/140/42 97/132/42
f 73/140/43 74/141/43 97/132/43
f 74/141/44 75/142/44 97/132/44
f 75/142/45 76/143/45 97/132/45
f 76/143/46 77/144/46 97/132/46
f 77/144/47 78/145/47 97/132/47
f 78/145/48 79/146/48 97/132/48
f 79/146/49 80/147/49 97/132/49
f 80/147/50 81/148/50 97/132/50
f 81/148/51 82/149/51 97/132/51
f 82/149/52 83/150/52 97/132/52
f 83/150/53 84/151/53 97/132/53
f 84/151/54 85/152/54 97/132/54
f 85/152/55 86/153/55 97/132/55
f 86/153/56 87/154/56 97/132/56
f 87/154/57 88/155/57 97/132/57
f 88/155/58 89/156/58 97/132/58
f 89/156/59 90/157/59 97/132/59
f 90/157/60 91/158/60 97/132/60
f 91/158/61 92/159/61 97/132/61
f 92/159/62 93/160/62 97/132/62
f 93/160/63 94/161/63 97/132/63
f 94/161/64 95/162/64 97/132/64
f 65/163/34 96/192/34 95/191/34 94/190/34 93/189/34 92/188/34 91/125/34 90/187/34 89/186/34 88/185/34 87/184/34 86/183/34 85/182/34 84/181/34 83/180/34 82/179/34 81/178/34 80/177/34 79/176/34 78/175/34 77/174/34 76/173/34 75/172/34 74/171/34 73/170/34 72/169/34 71/105/34 70/168/34 69/167/34 68/166/34 67/165/34 66/164/34
f 95/162/65 96/193/65 97/132/65
f 96/193/66 65/131/66 97/132/66
